<?xml version="1.0" encoding="utf-8"?>
<!-- Generator: Adobe Illustrator 19.1.0, SVG Export Plug-In . SVG Version: 6.00 Build 0)  -->
<svg version="1.1" id="Layer_1" xmlns="http://www.w3.org/2000/svg" xmlns:xlink="http://www.w3.org/1999/xlink" x="0px" y="0px"
	 viewBox="0 0 130 50" enable-background="new 0 0 130 50" xml:space="preserve">
<g>
	<path fill-rule="evenodd" clip-rule="evenodd" fill="#FFC20E" d="M12.598,7.809L12.598,7.809l0.562,0.582l0.283,0.544l0.824,0.564
		l0.806,0.545l0.977,0.412l0.825,0.564l0.843,0.412l0.414,0.132l0.544,0.131l0.431-0.131h0.544h0.939l3.208-2.214l3.301-2.346
		l0.584-0.694l0.674-0.413l1.238-1.126l0.413-0.414l0.563-0.393L30.984,3.4l0.413-0.544l0.563-0.564l0.415-0.13l0.13-0.282V1.599
		l-0.545-0.281l-0.281,0.131h-0.281l-0.413,0.562l-0.412,0.281l-0.844,0.826L29.333,3.4l-0.412,0.282l-0.433,0.281l-0.261,0.244
		L27.532,4.77l-0.565,0.712l-0.543,0.676L25.73,6.721L25.45,6.852l-0.414,0.15l-0.694,0.413l-0.412,0.394l-0.561,0.282l-0.528,0.3
		l-0.581,0.414l-0.957,0.806L20.59,9.892l-0.546,0.15l-0.242,0.149h-0.151l-0.394,0.131h-0.844H18l-0.43-0.131l-0.395-0.3
		l-0.562-0.281l-0.395-0.263l-0.581-0.281l-1.932-1.932l-0.414-0.282L13.16,6.459l-0.43-0.45l-0.412-0.526l-0.284-0.432
		l-0.262-0.131L11.491,4.77l-0.15,0.712v0.526l0.3,0.562l0.243,0.563l0.284,0.413l0.15,0.262H12.598L12.598,7.809z M28.077,38.673
		L28.077,38.673l-0.393-0.282l-0.433-0.281l-0.414-0.413l-0.411-0.393l-0.695-0.283l-0.563-0.43l-1.106-1.239l-0.545-0.281
		l-0.431-0.281l-0.394-0.414l-0.695-0.15l-0.431-0.244l-0.414-0.431l-0.824-0.414l-0.677-0.28H19.37l-0.264,0.131l-0.132,0.149
		l-0.168,0.132l-0.394,0.282v0.149h-0.149l-0.132,0.131v0.15l-0.825,0.806l-0.827,0.994l-0.56,0.544l-0.414,0.545l-0.283,0.563
		l-0.543,0.545v0.413l-0.149,0.431l-0.264,0.263l-0.148,0.15v0.13l-0.282,0.132l-0.131,0.132l-0.133,0.431v0.412l-0.13,0.131
		l-0.151,0.132l-0.131,0.563v0.131l0.131,0.281l0.281,0.151l0.133-0.151l0.413-0.13l0.281-0.15v-0.263l0.131-0.3l0.149-0.131
		l0.131-0.132l0.262-0.131l0.149-0.412l0.15-0.431l0.264-0.395l0.413-0.977l0.694-0.825l1.256-1.8l0.414-0.282l0.394-0.563
		l0.45-0.413h0.263l0.282-0.15l1.219,0.713l0.545,0.263l0.562,0.299l1.519,1.089l1.52,1.238h0.431l0.282,0.149l0.394,0.563
		l0.975,0.825l0.675,0.975l0.432,0.132h0.131h0.151l0.132-0.281V39.91v-0.412l-0.132-0.262L28.077,38.673L28.077,38.673z
		 M27.401,34.79L27.401,34.79l-0.433-0.263l-0.412-0.3l-0.413-0.244l-0.413-0.15l-0.281-0.281L25.035,33.4l-0.281-0.13l-0.264-0.132
		l-0.149-0.431l-0.28-0.112l-0.826-0.151L22.84,32.05l-0.449-0.282l-0.394-0.281l-0.282-0.132l-0.824-0.28l-0.695-0.114L19.52,30.51
		l-0.844,0.151l-0.412,0.149L18,30.961l-0.43,0.244l-0.395,0.282l-0.431,0.281L16.48,32.05l-0.262,0.393l-0.298,0.263l-0.846,0.431
		l-0.674,0.564l-0.827,0.395l-0.281,0.13l-0.28,0.3l-0.132,0.132l-0.281,0.13l-0.715,0.563l-0.243,0.282l-0.3,0.262l-0.13,0.13
		l-0.133,0.151l-0.281-0.151l-0.263,0.151l-0.169,0.149l-0.131,0.132l-0.263,0.562l-0.562,0.114l-0.412,0.299l-0.413,0.263
		l-0.15,0.413v0.713l0.15,0.113h0.264h0.433h0.28l0.13-0.113l0.15-0.431l0.282-0.281l0.243-0.131l0.563-0.414l0.414-0.261
		l0.431-0.283l0.694-0.843l0.264-0.151l0.149-0.244l0.281-0.149h0.283l0.824-0.563l0.806-0.544l0.846-0.694l0.693-0.432l0.694-0.543
		l1.369-1.089h1.127l0.526,0.149l0.563,0.246l0.13,0.131l0.131,0.149h0.414l0.281,0.151l0.694,0.543l1.106,0.695l0.545,0.264
		l0.562,0.28l0.695,0.283l0.432,0.412l0.113,0.431l0.431,0.132l0.825,0.149l0.675,0.676l0.432,0.132l0.564,0.15l0.11-0.15v-0.264
		l-0.392-0.431l-0.412-0.262l-0.433-0.431L27.401,34.79L27.401,34.79z M30.009,31.618L30.009,31.618h-0.282l-0.262-0.131
		l-0.545-0.282l-0.564-0.244l-0.281-0.15l-0.282,0.15l-0.394-0.3h-0.301l-0.412-0.151h-0.412l-0.281-0.131l-0.264-0.131H25.45
		l-0.151-0.132v-0.28l-0.13-0.15l-0.28-0.13h-0.397l-0.298-0.132l-0.957-0.15l-0.844-0.112l-0.957-0.45l-0.676-0.544h-0.43
		l-0.395-0.132l-0.413-0.149l-0.413,0.149h-0.431l-0.412,0.132L17.57,28.71l-3.17,1.669l-0.957,0.582l-0.977,0.526l-0.432,0.281
		l-0.543,0.149l-1.651,1.07l-1.802,0.844l-0.563,0.15l-0.279,0.113l-0.113,0.28l0.113,0.283l0.131,0.13l0.712,0.15l0.394-0.28
		l0.299-0.283l1.803-0.544l0.394-0.281l0.414-0.282l0.977-0.281l0.148-0.131l0.264-0.15h0.43l0.545-0.412l0.413-0.244l0.562-0.132
		l0.393-0.299l0.149-0.263l0.283-0.15l0.264-0.13l0.281-0.114l0.43-0.3l0.545-0.282l0.413-0.412l0.411-0.131l0.415-0.281
		l0.412-0.132l0.582-0.15l0.394-0.112l1.501,0.395l1.539,0.412l2.606,1.108l2.628,0.975h0.563l0.433,0.244l0.545,0.3l0.414,0.263
		l0.955,0.413l0.695,0.563h0.43l0.132-0.131v-0.149l-0.132-0.282l-0.281-0.281l-0.543-0.694l-0.3-0.131l-0.263-0.113L30.009,31.618
		L30.009,31.618z M11.772,24.226v-0.9h0.111l0.434-0.151l0.562-0.111l0.412-0.151l0.414-0.413l0.562-0.281l0.693-0.282l0.545-0.394
		l0.131-0.3l0.132-0.262l-0.696-0.714l-0.393-0.131l-0.413-0.149l-2.495-1.52v-1.519l1.388,0.994l0.959,0.395l0.842,0.563
		l1.783,0.844l0.281,0.132l0.15,0.262l0.263,0.131h0.28l0.546-0.131l0.543,0.131l0.564,0.15h0.563l0.395,0.15h0.43l0.394-0.15h0.414
		l0.281-0.15l0.15-0.131l0.262-0.149h0.282l0.299-0.112l0.245-0.132h0.431l0.281-0.15h0.544l0.413-0.15l0.544-0.263l0.583-0.15
		l2.045-0.957v1.52l-0.958,0.395l-0.974,0.281l-0.696,0.3l-0.544,0.264l-0.693,0.15l-0.694,0.413v0.281l0.279,0.262h0.15
		l0.544,0.132l0.263,0.299l0.15,0.132h0.133l0.562,0.281l0.545,0.283l0.974,0.262l0.958,0.412v0.488v0.751l0.301,0.299l0.412,0.133
		l0.282,0.131h0.412h0.394l0.282,0.131l0.563,0.15l0.412,0.283h0.545h0.282l0.28-0.151h0.282l0.13-0.131l0.262-0.412v-0.582
		l0.17-0.394v-0.207v-0.207l0.131-0.412v-0.282l0.13-0.413v-0.694l0.282-0.544l0.13-0.694l0.15-0.564l0.132-0.543v-0.432
		l-0.132-1.107v-1.107l-0.281-0.132l-0.282-0.149l-0.563-0.113l-1.651,0.394l-0.412,0.149l-0.563,0.132l-0.413,0.281h-0.263
		l-0.302-0.13l-1.106,0.412v1.52l0.845-0.282l1.238-0.562l0.713-0.112l0.674-0.169h0.281l0.133-0.131l0.148,0.131l0.282,0.282
		l0.263,0.281v0.845l-0.13,0.825l-0.132,0.844l-0.15,0.957l-0.263,1.726l-0.017,0.207v0.15l-0.133,0.131l-0.281,0.112l-1.801-0.526
		l-0.205-0.075l-1.465-0.488v0.488v0.751l-0.525-0.263l-0.301-0.281h-0.412l-0.395-0.207l-0.149-0.075l-0.544-0.131l-1.108-0.544
		l-0.974-0.412L22.541,22.5l-1.107-0.431l-1.106-0.394l-0.677-0.132l-0.544,0.132l-1.258,0.262L16.744,22.5l-1.107,0.564
		l-0.414,0.111l-0.262,0.151l-0.43,0.149l-0.412,0.263l-1.389,0.488l-0.563,0.207l-0.133,0.15h-0.262V24.226L11.772,24.226z
		 M11.772,24.226v-0.9l-0.281,0.149h-0.28l-0.677,0.263l-0.694,0.281l-0.432,0.131l-0.282-0.131L8.73,23.87l-0.299-0.262v-0.695
		l-0.263-0.545l-0.131-1.951l-0.281-1.782l-0.15-1.126l0.15-0.563l0.132-0.413l0.279-0.131l0.132,0.131l0.281,0.15l0.264,0.15
		l0.149,0.113l0.412,0.149l2.365,1.37v-1.519l-0.431-0.113l-0.977-0.694l-0.957-0.431l-0.282-0.281l-0.28-0.132l-0.414-0.131
		l-0.263-0.132l-0.279-0.129l-0.415,0.129H6.801l-0.302,0.396l-0.263,0.431v0.413v0.413l0.132,0.693v0.826v0.694v0.694l0.262,0.282
		v0.393l-0.131,0.714l0.302,0.413v0.543v0.976l0.281,0.262l0.113,0.433v0.618v0.075l0.131,0.413l0.148,0.263l0.826,0.432l0.43,0.131
		h0.395l0.153-0.131h0.28l0.563-0.282l0.544-0.15l0.545-0.15l0.562-0.244V24.226L11.772,24.226z M5.411,25.408H5.393l-0.394-0.694
		l-0.301-0.695l-0.131-0.844v-0.807l-0.411-2.101l-0.281-2.195v-1.125v-0.957v-1.388l0.128-0.544l0.153-0.693v-0.413l0.28-0.413
		l0.414-0.844l1.237,0.149l0.544,0.131l0.565,0.281l0.694,0.395L8.582,13.1l1.257,0.956l0.393,0.132l0.301,0.28l0.394,0.131
		l0.414,0.132l0.977,0.563l1.125,0.563l0.957,0.675l0.974,0.563h0.264h0.283h0.298l0.113,0.132l0.545,0.281h0.695l0.43,0.15h0.414
		h0.394l0.3,0.13h0.695v1.239l-1.538-0.131l-1.651-0.262l-0.693-0.432l-0.697-0.263l-1.104-0.563l-0.676-0.281l-0.564-0.412
		l-0.996-0.281l-0.806-0.544l-0.844-0.431l-0.825-0.396l-1.801-1.256l-0.805-0.544L6.236,13.1H5.674l-0.15,0.131l-0.131,0.131
		L5.26,13.776v0.413v0.149l-0.261,3.734l0.13,0.676l0.13,0.694l-0.13,0.544l0.13,0.431l0.133,0.977l0.281,0.974l0.281,0.958
		l-0.151,0.412l0.151,0.413l0.281,0.282v0.394l0.377,0.582l0.713,1.107v0.262h0.148l1.256-0.131l0.677-0.131l0.562-0.282
		l0.958-0.282l1.107-0.281l0.77-0.262l1.162-0.432l0.301-0.394l0.264-0.15l0.843-0.282l0.677-0.413l0.825-0.263l0.695-0.412
		l0.694-0.283l0.711-0.149h0.828v1.107l-0.995,0.132l-0.394,0.149L18,24.301l-0.824,0.282l-0.958,0.394l-0.298,0.299l-0.283,0.133
		h-0.02L14.96,25.67l-0.149,0.281h-0.281l-0.565,0.282l-0.394,0.131l-0.561,0.282l-0.546,0.131l-0.582,0.3l-1.35,0.394l-1.408,0.563
		l-0.13,0.132l-0.265,0.15h-0.43l-0.263-0.15l-0.431,0.15H7.195l-0.394-0.15l-0.302-0.281l-0.263-0.263l-0.281-0.713l-0.151-0.806
		L5.411,25.408L5.411,25.408z M26.968,25.408l-0.281-0.133l-0.262-0.149l-0.15-0.3l-0.826-0.112l-0.845-0.413l-0.675-0.281
		l-0.844-0.281l-0.245-0.263l-0.449-0.149l-0.263-0.151l-0.413-0.262h-0.563h-0.262l-0.3-0.132l-0.788-0.149v1.107h0.394
		l0.263,0.132h0.3h0.394l0.694,0.431l0.845,0.413l0.394,0.112l0.431,0.15l0.676,0.299l0.298,0.133l0.545,0.262l0.695,0.433
		l0.545,0.13l0.561,0.413l0.414,0.263l0.544,0.3l2.494,1.107l0.545,0.394l0.562,0.148l1.369,0.302l0.844-0.45l0.282-0.394
		l0.151-0.432l0.13-0.414l0.132-0.394l0.13-0.562v-0.412l0.357-0.695l0.075-0.133v-0.449l0.15-0.526V23.87v-0.395v-0.3v-0.262
		l0.262-0.545l0.414-3.733V17.79l0.13-0.843l0.152-0.807v-0.844l-0.152-0.131l-0.13-0.262l0.13-0.564l-0.413-0.431l-0.281-0.131
		h-0.263l-2.102,0.825l-2.194,0.694l-1.651,0.694l-1.822,0.544l-0.412,0.15l-0.544,0.15H25.73h-0.563l-0.28,0.394l-0.397,0.149
		l-0.974,0.132l-1.388,0.281h-0.413h-0.563l-0.394-0.13h-0.43l-0.526,0.13v1.239l1.35-0.131l0.844-0.15h0.695l0.825-0.112
		l0.676-0.169l0.843-0.262l0.846-0.263l1.651-0.431l1.499-0.563l0.302-0.113h0.263l0.561-0.3h0.132l1.803-0.394l1.669-0.431
		l0.132-0.131l0.151-0.15l0.392,0.15l0.132,0.694l0.15,0.563l-0.15,2.064l-0.262,1.801l-0.695,3.04l-0.3,1.67l-0.243,1.501
		l-0.302,0.169l-0.131,0.263l-0.131,0.131l-0.413,0.15h-0.414l-0.411-0.281l-0.283-0.131l-0.412-0.132l-1.238-0.431l-0.412-0.131
		l-0.564-0.412h-0.281l-0.393-0.283l-0.283-0.15l-0.301-0.131L26.968,25.408h-2.477H26.968L26.968,25.408z M1.79,20.698v-0.282
		v-0.543L1.658,19.31l-0.129-0.975v-0.958l0.129-2.213l0.132-0.431v-0.544l0.152-0.413l0.148-0.413v-0.826l0.262-0.694l0.283-0.544
		l0.412-0.563l0.282-0.545v-0.43l0.262-0.414l0.15-0.132h0.261l0.434-0.282l0.414-0.13h0.955h0.283l0.281,0.13l0.433,0.414v0.15
		H6.93l0.265,0.113l0.843,0.432l0.693,0.412l1.502,1.108l0.432,0.131l0.262,0.28l0.15,0.281l2.083,1.239l0.413,0.281l0.546,0.281
		l1.104,0.845h0.283l0.131-0.169h0.283h0.13l0.43,0.299l0.545,0.132l0.413,0.131L18,15.427l0.807,0.281h0.564h0.563v1.125h-0.282
		l-2.081-0.3h-0.132l-1.22-0.262l-1.257-0.413l-1.669-1.126l-0.826-0.395l-0.825-0.562l-0.844-0.413L9.969,12.8l-0.844-0.413
		l-0.825-0.544v-0.281L8.037,11.43l-0.431-0.131l-0.132-0.151l-0.279-0.3v-0.112L6.63,10.454l-0.544-0.263l-0.694-0.149
		l-0.544,0.149H4.567l-0.131,0.131l-0.28,0.264l-0.153,0.562l-0.128,0.414l-0.133,0.693L3.461,12.8l-0.564,1.389v0.28l0.151,0.263
		v0.299v0.264l-0.151,0.694v0.694v0.693l-0.15,0.563v0.395v0.413l0.15,0.694l0.301,0.694v0.432l-0.056,0.131l-0.094,0.282
		l0.15,0.562l0.263,0.526v0.299L3.33,22.631l0.131,0.544l0.131,0.563v0.563l0.282,0.282l0.128,0.394l0.153,0.694l0.28,0.845v0.394
		l0.131,0.3l0.432,0.675l0.206,0.3l0.319,0.393l0.431,0.694l0.132,0.15l0.149,0.132l0.263,0.412l0.245,0.074l0.187,0.075h0.151
		h0.113l0.131-0.075l0.148-0.074l1.108-0.131l1.107-0.413l0.675-0.15l0.563-0.262l0.564-0.3l0.676-0.262l0.411-0.263l0.433-0.3
		l0.561-0.13l0.546-0.133l0.412-0.15l0.281-0.131l0.411-0.131l0.414-0.132l0.132-0.3l0.15-0.131h0.298l0.262-0.131l0.395-0.151
		l0.3-0.261L18,25.408l0.264-0.133l0.412-0.149h0.299l0.132,0.149l0.826-0.149v1.107l-0.563,0.131h-0.113h-0.283L18,26.777
		l-0.975,0.432l-0.281,0.262H16.48l-0.262,0.15l-0.298,0.263l-0.414,0.149l-0.15,0.151l-0.133,0.131l-0.262,0.262l-0.28,0.132
		h-0.149l-0.565,0.3l-0.394,0.15l-0.413,0.112l-0.43,0.413l-1.277,0.356l-0.243,0.075l-1.371,0.545l-1.408,0.3l-0.543,0.244
		l-0.563,0.282l-0.827-0.132l-0.695-0.28l-0.411-0.264l-0.264-0.432l-0.338-0.338l-0.356-0.356l-0.15-0.525l-0.283-0.582
		L3.61,28.185l-0.018-0.019L3.33,27.621v-0.412v-0.563l-0.282-0.413L2.897,25.82v-0.412l-0.15-0.282l-0.111-0.3v-0.244l-0.283-0.563
		v-0.544l-0.262-1.108v-0.581l-0.148-0.394L1.79,20.831V20.698L1.79,20.698z M37.307,20.698l0.169-0.712l0.301-0.244v-0.3v-0.694
		v-0.544l0.129-0.414l0.152-0.281l0.112-0.825l0.15-0.825l-0.15-1.669v-0.282v-0.413L37.907,13.1l-0.129-0.451l-0.301-0.395
		l-0.263-0.281l-0.282-0.131h-0.263l-0.431-0.149l-0.674-0.131H35.28l-0.412,0.131l-1.107,0.412l-0.563,0.281l-0.563-0.132
		L31.53,12.65l-0.545,0.301L30.44,13.1l-1.107,0.263l-1.801,0.413l-0.845,0.281l-0.806,0.413l-0.846,0.131l-0.843,0.301
		l-0.394,0.129l-0.563,0.132l-1.107,0.131l-0.562,0.132l-0.414,0.15l-0.562,0.131l-0.546-0.131l-0.111,0.131v1.125l2.064-0.3
		l0.262-0.131l0.282-0.131l0.827-0.132h0.694l0.28-0.15l0.413-0.131l2.646-0.563l2.756-0.694l5.406-1.5h0.261l0.413,0.263
		l0.431,0.413l0.151,0.281v0.281v0.263l0.262,0.301l-0.15,1.237l-0.111,1.238v1.37l-0.299,1.239l-0.188,0.712l-0.095,0.282v0.413
		l-0.261,0.394v0.581l-0.152,0.545l-0.261,0.563v0.544l-0.283,0.563v0.544v0.413v0.694l-0.767,1.952l-0.077,0.131v0.262l-0.13,0.28
		l-0.132,0.414l0.132,0.413l-0.113,0.356l-0.019,0.075l-0.281,0.263h-0.694l-0.694-0.131l-0.6-0.207l-0.638-0.205l-0.545-0.281
		l-0.713-0.282l-0.676-0.112l-0.562-0.45l-0.414-0.132l-0.281-0.13l-0.376-0.263l-0.017-0.019l-0.433-0.132l-0.975-0.563
		l-0.977-0.562l-0.957-0.394l-0.825-0.412l-0.825-0.433l-0.433-0.262l-0.412-0.133l-0.694-0.149h-0.394h-0.3h-0.263h-0.263v1.107
		h0.263h0.263h0.563l0.281,0.131l0.413,0.282l0.413,0.131h0.131h0.282h0.15l0.148,0.131l1.089,0.562l0.959,0.695l0.038,0.019
		l0.373,0.131l0.432,0.131l0.695,0.563h0.411l0.263,0.262l0.301,0.15h0.394l0.131,0.132l0.301,0.13l0.261,0.15l0.283,0.131
		l0.112,0.074l0.583,0.338l0.544,0.131l0.713,0.301l0.674,0.264l0.415,0.412l0.693,0.281l1.257,0.149l0.283-0.149l0.262-0.15
		l0.413-0.131l0.3-0.282l0.112-0.244l0.149-0.451l0.094-0.469l0.037-0.205l0.151-0.413l0.131-0.413l0.223-0.825l1.013-3.603
		l0.15-1.107v-1.257l0.131-1.107L37.307,20.698L37.307,20.698z M8.432,9.216L8.432,9.216l0.564,0.132l0.412,0.15l0.432,0.394
		l0.393,0.3l0.978,0.657l0.13,0.169l0.3,0.13l0.131,0.151l0.262,0.131l0.284,0.132l0.281,0.131l0.281,0.149l0.132,0.412l0.561,0.395
		l0.546,0.301l1.255,0.544l0.264,0.13l0.132,0.151l0.561,0.131l0.545,0.149l0.563,0.281L18,14.469h0.264l0.279-0.131l0.564,0.131
		h0.413l1.07-0.131l0.976-0.281l1.126-0.281l0.394-0.281l0.431-0.131l0.545-0.131l0.429-0.432l2.76-0.694l2.759-0.806l0.563-0.281
		l0.695-0.169l1.499-0.394l0.432-0.263l0.412-0.43l0.695-0.827v-0.28V8.523l-0.413-0.281l-0.282-0.15l-0.13,0.15l-0.412,0.149
		l-0.433,0.414l-0.394,0.13l-0.15,0.282l-0.28,0.132l-0.545,0.263h-0.545l-0.565,0.151l-0.955,0.561l-1.276,0.526l-1.239,0.301
		l-2.495,0.693l-1.107,0.263l-0.394,0.149l-0.564,0.282l-0.413,0.112l-0.281,0.15L21.021,13.1H20.59l-0.546,0.131l-0.524,0.131
		l-1.256-0.131l-0.415-0.281L17.175,12.8l-1.125-0.413l-0.413-0.132l-0.414-0.281l-0.823-0.544l-0.694-0.282l-0.545-0.412
		l-0.694-0.414l-0.694-0.28L8.301,7.265L8.037,7.134L7.889,7.002l-0.283-0.15l-0.28-0.131L6.801,6.852H6.236v0.282L6.087,7.265
		l-0.132,0.15v0.131L6.63,7.96l0.565,0.431L8.432,9.216L8.432,9.216z M13.837,2.424L13.837,2.424l0.129,0.694l0.152,0.694
		l0.412,1.238l0.149,0.432l0.131,0.413l0.262,0.564l0.3,0.393l0.677,0.694l0.825,0.694l0.843,0.413l0.546,0.15h0.543l0.168-0.15
		h0.283l0.263-0.131l0.131-0.132h0.393l0.284-0.149l0.563-0.432l0.544-0.394l0.281-0.15l0.413-0.131l0.263-0.132l0.15-0.15
		l0.299-0.131h0.114l0.414-0.262l0.279-0.301l0.414-0.149l0.28-0.264l0.263-0.13l0.283-0.282V5.051l0.28-0.281V4.507V4.356
		l-0.132-0.15h-0.431h-0.114h-0.149l-0.28,0.451h-0.264l-0.43,0.112l-0.283,0.281L22.84,5.202l-0.299,0.131l-0.282,0.282
		l-0.412,0.281l-0.281,0.263l-0.414,0.15l-0.394,0.263l-0.43,0.281l-0.284,0.15l-0.242,0.132l-0.151,0.131H19.37l-0.113,0.15h-0.15
		h-0.132l-0.168,0.131h-0.264l-0.412-0.131l-0.282-0.15h-0.411l-0.413-0.694L16.48,6.009l-0.843-1.09l-0.264-0.563V3.963
		l0.132-0.281L14.96,2.857l-0.43-0.976h-0.264l-0.301-0.15l-0.261,0.15l0.131,0.131v0.281V2.424L13.837,2.424z"/>
	<g>
		<g>
			<path fill-rule="evenodd" clip-rule="evenodd" fill="#003663" d="M47.403,24.231c-0.028,0.344-0.268,0.307,0.234,0.93
				c0,0.326,0.202,0.267,0.644,0.664c0.105,0.267,0.495-0.048,0.728,0.419c0.404,0.018,0.559,0.135,0.941,0.242
				c0.446,0.177,0.884,0.635,1.59,0.756c0.317,0.086,0.845,0.801,1.477,0.99c0.356,0.024,0.615,0.678,1.044,1.04
				c-0.061,0.485,0.13,1.084,0.26,1.781c-0.178,0.691-0.173,0.945-0.506,1.459c-0.123,0.431-0.83,0.877-1.019,1.411
				c-0.568,0.136-1.218,0.277-1.69,0.619c-0.723,0.073-1.123-0.098-1.841,0.298c-0.16-0.192-0.872-0.426-1.261-0.533
				c-0.408,0.089-0.955-0.138-1.199-0.155c-0.01-0.352-0.274-0.298-0.353-0.416c0.094,0.213,0.099,0.099-0.248,0.155
				c0.078,0.152-0.254-0.062-0.258,0.112c0.007-0.157-0.32,0.02-0.221,0.234c-0.152,0.039-0.248,0.425-0.357,0.327
				c0.218,0.068-0.104-0.137-0.101,0.191c0.063-0.426-0.003-0.013-0.022-0.532c0.009,0.036-0.238,0.184-0.321-0.065
				c0.27-0.108,0.321-0.216,0.235-0.724c0.095-0.187,0.051-0.654,0.12-0.77c-0.147-0.648-0.048-1.048-0.135-1.459
				c0.043-0.164-0.116-0.268,0.098-0.779c-0.024-0.017-0.258,0.067-0.042-0.386c-0.034,0.033,0.165-0.098,0.201,0.109
				c-0.105-0.113,0.193-0.223,0.201-0.087c-0.081,0.367,0.004,0.373,0.286,0.46c-0.062,0.342,0.257,1.023,0.457,0.969
				c0.183,0.606,0.266,0.884,0.671,1.602c0.482,0.032,0.665,0.538,1.121,0.514c0.386-0.029,0.959,0,1.513,0.11
				c0.093,0.188,0.749,0.132,0.84,0.128c0.304-0.37,0.863-0.526,1.118-0.587c0.244-0.239,0.356-0.35,0.328-0.904
				c0.354,0.025,0.457-0.428,0.25-0.934c0.21-0.095,0.181-0.599-0.364-0.798c-0.043-0.313-0.458-1.06-0.577-1.27
				c-0.357-0.279-0.88-0.347-1.128-0.704c-0.271-0.197-0.657-0.006-0.933-0.449c-0.726,0.088-1.159,0.014-1.379-0.368
				c-0.404-0.222-0.983-0.546-1.238-0.973c-0.609-0.148-0.798-0.172-0.854-1.028c-0.224-0.087-0.404-0.812-0.315-1.081
				c0.022-0.96-0.055-1.223,0.396-1.867c0.284-0.249,0.383-0.732,0.923-1.026c0.313-0.057,1.161-0.363,1.612-0.181
				c0.547-0.215,0.946-0.519,1.84-0.249c0.329-0.38,0.709,0.034,0.9-0.102c0.065,0.053,0.593,0.272,0.888,0.351
				c0.092-0.004,0.232,0.141,0.437-0.091c-0.015,0.297,0.19,0.14,0.129,0.284c0.418-0.29,0.474-0.098,0.352-0.394
				c0.104,0.241,0.039,0.009,0.253-0.023c0.058-0.172,0.284,0.023,0.342-0.249c-0.205,0.35-0.015,0.234-0.093,0.072
				c0.391,0.059,0.382,0.38,0.283,0.365c0.075,0.016-0.063,0.303-0.317,0.702c0.012,0.311-0.045,0.561,0.211,0.759
				c0.058,0.356-0.058,0.577-0.038,0.774c0.115,0.054,0.04,0.524,0.226,1.218c-0.064-0.1-0.217-0.058-0.035-0.159
				c-0.195,0.131-0.372,0.292-0.538-0.148c0.121,0.019,0.093,0.081,0.025,0.211c-0.236,0.017-0.054-0.071-0.019-0.223
				c-0.248-0.456-0.604-0.794-0.548-1.298c-0.298-0.565-0.51-0.913-0.766-0.762c-0.267-0.167-0.373-0.606-0.652-0.519
				c-0.561,0-1.002-0.272-1.579,0.073c-0.302-0.319-0.664-0.277-0.658,0.188c-0.299-0.3-0.697,0.031-1.141,0.13
				c0.095-0.092-0.151,0.136-0.361,0.404C47.264,23.407,47.08,23.725,47.403,24.231L47.403,24.231z"/>
			<path fill-rule="evenodd" clip-rule="evenodd" fill="#003663" d="M58.128,30.558c-0.385,0.25-0.555,0.23-0.331,0.236
				c-0.048,0.172-0.472-0.081-0.275,0.187c-0.05,0.07-0.973,1.86-1.017,1.549c0.257,0.437,0.346,0.352,0.005,0.452
				c0.223,0.012,0.276,0.205,0.124,0.649c0.181,0.077,0.102,0.086,0.18,0.167c0.194-0.277,0.361,0.025,0.633-0.064
				c0.235,0.372,0.155,0.091,0.439,0.12c0.07,0.158,0.065-0.152-0.008-0.118c0.046,0.307,0.191,0.414,0.275,0.209
				c0.098,0.358-0.123,0.371-0.287,0.441c0.076-0.058-0.45,0.102-0.301-0.003c-0.516-0.01-0.483,0.024-0.792-0.056
				c-0.056,0.228-0.479,0.013-0.592,0.139c-0.267-0.053-0.717-0.032-0.717-0.032s-0.879-0.009-0.853,0
				c-0.367-0.029-0.101-0.127-0.319-0.326c0,0.072-0.19,0.054-0.095,0.109c0.289-0.353,0.16-0.168,0.322-0.129
				c-0.305-0.422-0.122-0.201-0.194-0.374c0.019,0.148,0.54-0.089,0.497,0.099c0.04-0.156,0.026,0.063,0.13-0.089
				c0.151-0.06,0.564-0.321,0.71-0.412c0.087-0.119-0.164-0.341,0.191-0.305c0.176-0.221,0.309-0.602,0.086-0.688
				c0.08,0.012,0.28-0.311,0.548-0.831c0.088-0.173,0.185-0.364,0.288-0.573c0.161-0.33,0.335-0.703,0.518-1.1
				c0.07-0.153,0.144-0.31,0.217-0.471c0.073-0.16,0.146-0.323,0.22-0.485c0.089-0.194,0.35-1.139,0.35-1.139
				s0.088,0.158,0.176-0.039c0.134-0.295,0.259-0.585,0.384-0.864c0.251-0.571,0.1-0.644,0.293-1.065
				c0.29-0.651,0.856-1.511,0.866-1.477c-0.253-0.109,0.044-0.245,0.313-0.19c0-0.135-0.035-0.099,0.096,0.208
				c0.303,0.612,0.562,1.129,1.021,1.997c0.268,0.417,0.242,1.38,0.779,1.764c0.15,1.08,0.597,1.604,1.135,2.345
				c0.082,0.921,0.58,1.573,0.452,2.263c0.414,0.384,0.359,0.677,0.414,0.702c0.418,0.274,0.344,0.399,0.453,0.204
				c0.276,0.032,0.305,0.233,0.387,0.389c0.339,0.054,0.406,0.122,0.379-0.088c0.335,0.22,0.403,0.287-0.003,0.329
				c0.03,0.052,0.317-0.016,0.432-0.183c-0.03,0.099-0.037,0.203-0.298,0.318c-0.116,0.249-0.322,0.084-0.604,0.099
				c-0.221-0.069-0.555,0.123-0.729,0c-0.595,0.022-0.393-0.051-0.614-0.081c-0.689,0.162-0.707,0.142-1.526-0.032
				c-0.046-0.086-0.757,0.105-0.862-0.029c-0.101,0.041-0.126,0.172-0.205,0.033c0.145,0.18,0.049,0.07-0.109-0.202
				c-0.017-0.008-0.08-0.155,0.098-0.008c-0.06-0.262,0.19-0.293,0.271-0.106c0.224-0.141,0.408-0.064,0.753-0.159
				c-0.095-0.329,0.111-0.193,0.23-0.674c0.144,0.223-0.181-0.089-0.123,0.027c-0.156-0.197,0.188-0.411,0.047-0.28
				c-0.144-0.375-0.23-0.801-0.161-1.056c-0.035-0.197-0.555-0.529-0.528-0.786c-0.25-0.342-0.195-0.439-0.063-0.548
				c-0.326,0.266-0.603-0.023-0.389,0.019C60.481,30.849,58.065,30.512,58.128,30.558L58.128,30.558z M60.653,30.066
				c0.078,0.093,0.158,0.056,0.289,0c0.052,0.004-0.048-0.199-0.033-0.252c-0.013,0.026-1.427-3.313-1.438-3.426
				c0.062,0.059,0.053-0.035-0.102-0.028c0-0.041-0.025-0.038-0.109,0.144c0.003-0.002,0.02,0.095-0.043,0.251
				c-0.044,0.1-0.149,0.222-0.209,0.364c-0.097,0.232,0.137-0.126,0.012,0.162c-0.39,0.469-0.831,1.935-0.958,2.227
				c-0.248,0.568-0.242,0.352-0.247,0.355c-0.027,0.005-0.01,0.122,0.064,0.116c0.066,0.166,0.069,0.138,0.219,0.144
				C58.097,30.18,60.636,30.049,60.653,30.066L60.653,30.066z"/>
			<path fill-rule="evenodd" clip-rule="evenodd" fill="#003663" d="M67.39,30.938c0-0.159,0.086,0.054,0.089-0.145
				c0.009-0.486,0.01-1.13,0.009-1.793c0-0.138,0-0.277-0.002-0.414c0-0.295-0.001-0.586-0.004-0.865c0-0.059,0-0.119,0-0.177
				c-0.002-0.265-0.002-0.513-0.002-0.732c0-0.047,0-0.092,0-0.135c0-0.125-0.001-0.24,0-0.341c0.002-0.746-0.085-0.564-0.024-0.632
				c-0.233-0.308-0.194-0.433-0.529-0.831c-0.319-0.147-0.63-0.269-1.159-0.017c-0.024-0.043-0.133-0.275,0.162-0.357
				c-0.113,0.004-0.093-0.123-0.039-0.22c-0.349,0.079-0.039-0.025-0.172-0.015c0.255-0.107,0.092-0.234,0.099-0.057
				c0.414-0.192,0.573,0.017,0.563-0.204c0.184,0.149,0.793,0.047,0.756,0.11c0.419,0.119,0.524,0.113,0.764,0.368
				c0.65-0.211,0.681,0.032,0.63-0.225c0.034,0.041,0.268,0.306,0.625,0.708c0.096,0.11,0.202,0.231,0.322,0.362
				c0.114,0.13-0.034,0.106,0.097,0.252c0.09,0.1,0.451,0.367,0.546,0.473c0.103,0.116,0.209,0.234,0.32,0.355
				c0.12,0.136,0.204,0.282,0.328,0.421c0.082,0.089,0.467,0.58,0.547,0.671c0.083,0.091-0.231-0.308-0.231-0.308l0.645,0.417
				c0,0,0.958,1.479,1.191,1.738c0.248,0.27,0.214,0.039,0.439,0.284c0.259,0.279,0.955,1.069,1.168,1.292
				c0.528,0.56,0.427,0.374,0.455,0.343c0.081,0.335-0.014,0.199,0.031-0.051c0.023,0.182-0.155-3.276-0.126-3.519
				c0.008-0.115-0.166-2.136,0-2.333c-0.166-0.328-0.166-0.433-0.277-0.307c-0.362,0.008-0.411-0.153-0.49-0.266
				c-0.046-0.064,0.006-0.224-0.124,0.134c-0.021-0.181-0.335-0.113-0.423-0.28c-0.16,0.107-0.39,0.203-0.338-0.203
				c-0.052,0.012-0.052-0.063-0.096,0.156c0.247-0.073,0.164-0.092,0.288-0.429c-0.032,0.179,0.122,0.14-0.026-0.097
				c0.166,0.174,1.543,0.097,1.543,0.097s1.725,0.178,1.89-0.108c0.27,0.211,0.093,0.261,0.129,0.12
				c-0.069,0.223,0.298,0.177,0.135,0.155c0.029-0.016-0.034,0.065-0.292,0.094c0.394,0.26-0.029,0.173,0.167,0.24
				c-0.408,0.024-0.51,0.084-0.745,0.124c-0.012-0.241,0.006-0.012,0.102,0.166c-0.346-0.051-0.307-0.121-0.49,0.117
				c-0.089,0.026,0.062,0.026,0.042,0.087c-0.076,0.052-0.225,2.329-0.225,2.329s0.066-0.301,0.074,0.148
				c0.01,0.018,0.06,0.623,0.061,1.083c0.004,0.083,0.004,0.167,0.004,0.256c0,0.037,0,0.073,0,0.108
				c0,0.075-0.108-0.025-0.108,0.054c0,0.028,0.108,0.231,0.108,0.258c0,0.04,0,0.081,0,0.122c0,0.044,0,0.089,0,0.135
				c0,0.053,0,0.107,0,0.161c0,0.107-0.004,0.326-0.004,0.326l-0.061-0.095l0.057,0.45c0,0,0,0.132-0.002,0.199
				c0,0.251-0.002,0.506-0.003,0.758c-0.006,0.293-0.009,0.58-0.015,0.854c-0.002,0.188-0.006,0.369-0.008,0.542
				c-0.005,0.209-0.11-0.192-0.115-0.015c-0.006,0.229,0.086,1.02,0.078,1.172c-0.015,0.232-0.031,0.361-0.044,0.345
				c-0.164,0.189-0.611,0.071-0.61,0.08c-0.022-0.081-1.355-1.589-1.355-1.589s-1.567-1.555-1.476-1.641
				c0.097-0.085-1.304-1.691-1.367-1.521c-0.063,0.169-1.386-1.556-1.853-2.108c-0.453-0.534-0.714-0.879-0.662-0.902
				c-0.023-0.083-0.289-0.024-0.19,0.218c0.065-0.25-0.326-0.072-0.128,0.094c-0.053-0.001,0.054-0.444,0.087,0.421
				c0.018,0.48,0.25,0.57,0.058,1.593c-0.189,1.022-0.043,1.967-0.022,2.354c0.031,0.686,0.052,1.171,0.039,1.168
				c-0.301,0.418-0.004,0.42-0.21,0.747c0.342,0.045,0.255,0.194,0.24,0.466c0.404,0.133,0.53,0.162,0.597,0.255
				c0.307-0.05,0.269,0.111,0.828-0.07c-0.059,0.1-0.139,0.181-0.146,0.287c0.228-0.073-0.056-0.181,0.096,0.039
				c0.149-0.022-0.085,0.079,0.192-0.041c-0.411,0.196-0.314,0.168-0.158,0.224c-0.267,0.134-0.817-0.069-0.759,0.02
				c-0.304-0.1-1.024,0.16-1.122-0.067c-0.388,0.092-0.917-0.043-1.281,0.07c-0.297-0.162-0.33,0.244-0.396-0.019
				c-0.361,0.182-0.143-0.021-0.167-0.102c-0.024-0.141-0.13-0.089-0.242-0.202c0.194-0.278,0.416-0.041,0.445-0.206
				c0.186-0.022,0.3,0.038,0.519,0.147c0.182-0.022,0.266-0.32,0.611-0.384c-0.31-0.197-0.041-0.344-0.051-0.423
				c0.073,0.019,0.071-0.328,0.051-0.881C67.344,32.399,67.38,31.792,67.39,30.938L67.39,30.938z"/>
			<path fill-rule="evenodd" clip-rule="evenodd" fill="#003663" d="M83.472,32.457c0.242,0.145,0.216,0.539,0.262,0.846
				c-0.06-0.082,0.099,0.024-0.06,0.426c0.293-0.174,0.473-0.022,0.421,0.086c0.513-0.108,0.669-0.17,1.092-0.004
				c-0.102,0.147,0.172,0.155-0.113,0.285c0.063-0.058,0.237,0.01,0.131-0.165c0.257,0.135,0.185,0.458-0.009,0.26
				c-0.143,0.313-0.169,0.262-0.209,0.22c-0.178,0.095-0.738,0.157-1.22-0.03c-0.346,0.051-0.539,0.024-1.224,0
				c-0.391,0.051-0.426-0.071-0.905,0.099c-0.458-0.004-1.006,0.021-1.381-0.156c0.182-0.148,0.094,0.141-0.051-0.228
				c-0.124,0.152-0.165-0.005-0.011-0.034c0.145-0.031-0.121,0.054,0.09-0.247c-0.131-0.072,0.046-0.067,0.098-0.108
				c0.412,0.183,0.699,0.266,0.614,0.159c0.254,0.021,0.528-0.41,0.445-0.238c0.313-0.246,0.247-0.503,0.335-0.519
				c-0.029-0.024-0.048-0.432-0.105-0.772c0.031,0.046,0.07-0.944,0.082-1.526c0.008-0.348,0.079-0.164,0.081-0.623
				c0.003-0.309,0.101,0.773,0.113,0.13c0.01-0.602-0.068-2.931-0.063-3.234c0.01-0.679-0.095-0.088-0.078-0.579
				c0.02-0.572,0.05-0.938,0.095-0.915c0.142-0.387-0.194-0.494-0.337-0.62c-0.155-0.029-0.494-0.378-0.932-0.417
				c-0.529,0.28-0.741,0.234-1.08,0.055c0,0.076-0.48,0.275-0.358,0.437c-0.276,0.077-0.342,0.535-0.459,0.423
				c-0.316,0.369-0.219,0.757-0.303,0.932c-0.074,0.296-0.118,0.398-0.177,0.223c0.052,0.255-0.28,0.125-0.201,0.154
				c-0.189-0.191-0.251,0.103,0.026,0.034c-0.301-0.36-0.218-0.095-0.078-0.226c-0.206-0.316-0.114-0.803-0.08-1.034
				c0.144-0.394,0.155-0.91-0.143-1.375c0.02,0,0.306,0.196,0.238-0.128c0.364,0.237,0.403,0.087,0.716,0.179
				c-0.062-0.014,0.189-0.024,0.632-0.03c0.19-0.002,0.421-0.004,0.677-0.006c0.176,0,0.36-0.002,0.559-0.002
				c0.264-0.002,0.252-0.209,0.252-0.209s1.61,0.201,2.125,0.197c0.273-0.001,0.544-0.001,0.808-0.004
				c0.359-0.004,2.768-0.272,2.768-0.272s0.267,0.208,0.182,0.147c0.374,0.031,0.704,0.138,0.806,0.263
				c-0.001,0.032,0.072,0.211-0.072,0.154c0.144,0.038,0.123,0.161,0.101,0.295c0.131,0.171,0.113,0.234,0.117,0.654
				c-0.289,0.146-0.255,0.219-0.246,0.365c0.078,0.11,0.129,0.142,0.233,0.474c-0.237-0.068,0.08,0.212-0.249,0.305
				c0.05,0.032,0.145-0.281,0.02-0.059c-0.018-0.139-0.086,0.294-0.21-0.039c-0.272,0.084-0.3-0.644-0.31-0.703
				c-0.354-0.202-0.434-0.742-0.541-0.643c-0.339-0.132-0.326-0.316-0.688-0.514c-0.05,0.264-0.527,0.084-0.985-0.083
				c-0.354,0.165-0.667,0.262-0.868,0.47c0.005,0.102-0.381,0.172-0.18,0.708c-0.012-0.059-0.036,1.551-0.087,2.347
				c-0.035,0.531-0.099,0.101-0.117,0.776c-0.006,0.294,0.072,0.713,0.068,1.003L83.472,32.457L83.472,32.457z"/>
			<path fill-rule="evenodd" clip-rule="evenodd" fill="#003663" d="M90.127,32.076c-0.223-0.139-0.204-5.404-0.213-5.42
				c-0.053-0.242,0.007-0.941-0.047-1.055c-0.055-0.393-0.093-0.605-0.324-0.553c-0.125-0.296-0.116-0.269-0.319-0.146
				c-0.262-0.088-0.415-0.476-0.756-0.261c-0.165,0.04-0.227-0.102-0.271-0.051c-0.039-0.254-0.077-0.488,0.056-0.51
				c-0.068-0.075,0.218-0.063,0.218-0.063l1.123,0.06c0,0,0.771,0.159,1.215-0.016c0.175,0.003,0.257,0.111,0.519,0.138
				c0.3,0.03,0.473-0.11,0.473-0.11s0.398-0.019,0.628-0.011c0.23-0.004,0.536-0.016,0.536-0.016l0.252,0.007c0,0,0,0.131,0.079,0.3
				c-0.011,0.177,0.002,0.109-0.074-0.008c-0.127,0.081-0.167,0.327-0.251,0.151c-0.231,0.066-0.446,0.157-0.647,0.275
				c-0.281-0.173-0.407,0.223-0.522,0.034c-0.183,0.144-0.25,0.642-0.211,0.772c-0.085,0.103-0.094,0.399,0.03,0.721
				c0,0.029-0.001,0.78-0.008,1.743c-0.001,0.171-0.139,1.265-0.141,1.447c-0.002,0.286,0.131-0.329,0.129-0.035
				c-0.015,1.436-0.037,2.837-0.064,2.912c0.016,0.322,0.091,0.584,0,0.984c0.149,0.106,0.12,0.181,0.324,0.355
				c0.011,0.093,0.237,0.154,0.492,0.253c0.243-0.178,0.404-0.101,0.722,0.078c0.009-0.264,0.066,0.059,0.052-0.094
				c0.124,0.147,0.229,0.16,0.094,0.384c0.072,0.094,0.097,0.098-0.034-0.148c-0.014,0.233-0.128,0.139-0.154,0.368
				c-0.441-0.117-0.765-0.007-1.173-0.009c-0.426-0.137-0.882-0.042-1.257-0.169c-0.346-0.005-0.641,0.051-1.133,0.027
				c-0.324-0.158-0.705,0.136-1.195,0.034c-0.05,0.009-0.043,0.039-0.016,0.062c-0.161-0.28,0.017-0.163-0.058-0.478
				c0.004-0.056,0.068,0.004-0.01,0.031c0.136-0.092,0.143-0.187,0.198,0c0.214-0.087,0.611-0.062,0.772-0.241
				c0.178-0.21,0.236,0.036,0.344-0.222c0.131-0.022,0.331-0.207,0.358-0.181c-0.108-0.219,0.05-1.04,0.064-1.237
				C89.873,32.037,90.054,32.594,90.127,32.076L90.127,32.076z"/>
			<path fill-rule="evenodd" clip-rule="evenodd" fill="#003663" d="M95.732,31.265c-0.005-0.162-0.006-0.342-0.008-0.535
				c-0.004-0.247-0.007-0.517-0.011-0.798c-0.004-0.472-0.255-1.93-0.019-1.464c0.233,0.465-0.004-0.358-0.008-0.532
				c-0.02-1.24-0.049-2.258-0.099-2.206c-0.098-0.184-0.005-0.435-0.13-0.799c-0.325-0.323-0.873-0.152-1.361-0.394
				c0.065,0,0.076,0.086,0.087,0.125c-0.087-0.297-0.317-0.325-0.346-0.241c0.214-0.088,0.099-0.206,0.275-0.396
				c-0.098,0.065,0.18,0.159,0.011,0.101c0.417-0.11,0.563-0.188,0.853-0.121c0.267,0.004,0.349,0.132,0.779,0.06
				c-0.03-0.12,0.605,0,0.605,0s0.285,0.087,0.312,0.428c0.007-0.071-0.482-0.336,0.208,0.4c0.159,0.168,1.292,1.092,1.469,1.284
				c0.092,0.099,0.458,0.694,0.552,0.796c0.147,0.158,0.023-0.168,0.177,0c0.182,0.2,0.365,0.404,0.552,0.611
				c0.079,0.086,0.157,0.172,0.233,0.259c0.104,0.115,0.209,0.231,0.312,0.347c0.799,1.169,0.472,0.53,0.701,0.787
				c0.202,0.228,0.396,0.449,0.581,0.661c0.095,0.105-0.15-0.026,0.059,0.269c0.244,0.351,0.951,1.132,1.042,1.241
				c0.665,0.766,0.549,0.417,0.483,0.394c0.009,0.191,0.414-0.108,0.415-0.32c-0.237,0.017-0.237-3.369-0.305-3.531
				c0.04-0.084,0.326-0.248,0.078-0.488c0.108-0.243,0.059-0.729,0.052-0.876c-0.223-0.16-0.144-0.519-0.108-0.633
				c0.101-0.159-0.012-0.34-0.186-0.336c0.062-0.142-0.1-0.447,0.142-0.394c-0.113-0.049-0.435-0.217-0.177-0.1
				c-0.178-0.129-0.568-0.22-0.546-0.315c-0.022,0.214-0.424,0.092-0.484,0.158c0.021,0.03,0.183-0.096,0.112-0.355
				c-0.155,0.229-0.183,0.016-0.44-0.088c0.196-0.081,0.412-0.191,0.218-0.049c0.216-0.019-0.074-0.254-0.062-0.236
				c0.006,0.069,0.642,0.181,1.153,0.029c0.165,0.277,0.396,0.07,0.617,0.112c0.459-0.232,0.906-0.025,0.885,0.029
				c0.34-0.303,0.806,0.089,0.945,0.051c0.028-0.206,0.132-0.018-0.016,0.055c0.034-0.141,0.06,0.247,0.109-0.066
				c0.192,0.26-0.004,0.435-0.083,0.207c0.118,0.151,0.243,0.162,0.05,0.276c-0.204,0.154-0.247-0.078-0.579-0.178
				c-0.161,0.079,0.056,0.372-0.432,0.318c0.05-0.056-0.156-0.048-0.184-0.084c0.069,0.207,0.089,0.37,0.01,0.577
				c0.063,0.077,0.096,0.075-0.13,0.308c-0.005,0.48-0.199,0.61,0.132,0.778c-0.177,0.07-0.273,0.847-0.071,0.811
				c0.015,0.464-0.296,0.6-0.229,0.708c0.132-0.074-0.001,6.356,0.178,6.522c-0.19-0.099-0.338-0.116-0.426,0.016
				c-0.134-0.045-0.465,0.08-0.536-0.143c-0.003,0.044-0.603-0.664-1.444-1.674c-0.314-0.377-0.455-0.189-0.455-0.189
				s-1.038-1.605-1.279-1.891c-0.417-0.499-0.838-1.002-1.244-1.477c-0.102-0.119-0.203-0.237-0.301-0.354
				c-0.139-0.165,0.269,0.061,0.269,0.061l-0.893-1.023l-0.214-0.277l-0.595-0.196c0,0-0.698-0.901-0.752-0.889
				c0.044,0.133-0.053,0.522-0.084,0.693c0.362-0.039,0.336,5.104,0.066,5.247c0.088,0.304,0.201,0.546,0.338,0.847
				c-0.238,0.224,0.121,0.401,0.211,0.246c0.18,0.418,0.318,0.198,0.615,0.291c-0.143,0.068,0.058-0.007,0.207,0.04
				c0.458-0.222,0.351-0.034,0.419,0.082c0.075-0.003,0.088,0.397,0.06,0.587c0,0-0.714,0.06-0.853-0.051
				c-0.403,0.014-0.624,0.12-1.068,0.051c-0.449-0.054-0.756-0.07-1.098,0.005c-0.331,0.05-0.83-0.06-0.724-0.036
				c-0.028-0.2,0.031,0.208-0.299-0.06c0.106,0.01-0.218-0.329,0.084-0.287c-0.243-0.319,0.171-0.047-0.098-0.155
				c0.326,0.102,0.498-0.04,0.786-0.219c0.466-0.033,0.461-0.114,0.522-0.25c0.029,0.012,0.303-0.064,0.44-0.313
				c0.07-0.018-0.039-0.485,0.003-1.001C95.75,32.124,95.743,31.786,95.732,31.265L95.732,31.265z"/>
			<path fill-rule="evenodd" clip-rule="evenodd" fill="#003663" d="M114.463,28.621c0.079,0.091-0.094-2.21-0.098-2.128
				c0.139-0.326,0.317-0.566,0.089-0.721c-0.063-0.339,0.05-0.74-0.329-0.808c0.121,0.103,0.014-0.232-0.05-0.339
				c-0.462,0.281-0.436-0.014-1.158,0.017c-0.06-0.098,0.257-0.174,0.063-0.136c0.156-0.026-0.043-0.098-0.168-0.073
				c0.254-0.211,0.332-0.323-0.047-0.097c0.07,0.037,0.443-0.173,0.348-0.016c0.372-0.185,0.742-0.175,1.112-0.188
				c0.513,0.229,1.191,0.018,1.191,0.018l0.546,0.04l0.825-0.154l0.447,0.22c0,0,0.183-0.275,0.536-0.193
				c0.134,0.086,0.144,0.32-0.013,0.268c0.065-0.148,0.37-0.16,0.17,0.243c0.035-0.086,0.079,0.021,0.052,0.171
				c-0.02-0.122,0.082-0.232-0.385-0.045c-0.383-0.094-0.604-0.071-0.397,0.1c-0.163,0.197-0.573-0.038-0.857,0.289
				c0.015,0.178-0.153,0.383,0.159,0.416c-0.365,0.311-0.214,0.738-0.218,1.074c-0.16,0.058,0.097,5.809-0.05,5.8
				c0.108,0.656-0.105,0.736,0.136,0.842c0.188,0.279,0.301,0.424,0.265,0.408c-0.053,0.334,0.167,0.231,0.249,0.389
				c0.336,0.062,0.526,0.026,0.926-0.139c-0.064,0.191,0.009,0.012,0.199,0.25c0.023,0.179,0.089,0.304-0.345,0.231
				c-0.379,0.069-0.755,0.217-1.271,0.073c-0.503,0.048-0.823-0.051-0.823-0.051l-2.714,0.051c0,0-0.118-0.241,0.101-0.389
				c0.207,0.153-0.01,0.16,0.304-0.025c0.351,0.118,0.278-0.103,0.85,0.045c-0.009,0-0.05-0.131,0.047-0.284
				c0.178-0.301,0.139-0.415,0.447-0.654c0.041,0.12-0.177-0.241-0.118-0.755c0.242,0.096-0.105-2.739-0.104-2.567
				c-0.023-0.404-0.071-0.318-0.247-0.428c0.022-0.131-4.516-0.102-4.499,0.194c-0.222-0.237-0.433,2.874-0.484,3.02
				c0.051,0.432-0.075,0.46,0.198,0.842c0.119,0.028,0.089,0.256,0.369,0.303c0.053,0.241,0.11,0.279,0.116,0.389
				c0.472-0.23,0.587-0.295,0.894,0.114c0.153-0.026,0.11-0.35,0.171-0.218c-0.171,0.134-0.106,0.188,0.255,0.185
				c-0.237,0.256-0.075,0.144-0.108,0.151c-0.406,0.131-0.096,0.167-0.113,0.163c-0.623-0.025-1.162-0.03-1.37,0.012
				c-0.175,0.057-0.64-0.064-1.128-0.08c-0.321-0.1-1.063-0.016-1.063-0.016s-0.755-0.024-1.295-0.009
				c-0.187-0.085-0.017-0.099-0.17,0.216c0.217-0.071-0.235-0.384,0.129-0.302c-0.209,0.052-0.28-0.012-0.365-0.387
				c0.267,0.278,0.308,0.031,0.512,0.167c0.07-0.041,0.272-0.009,0.875-0.302c0.131-0.113,0.329,0.193,0.226-0.173
				c0.141-0.206,0.33-0.136,0.214-0.297c0.258-0.192-0.116-0.416,0.217-0.876c-0.024,0.045-0.051-0.775-0.081-1.821
				c-0.008-0.295-0.015-0.607-0.026-0.922c-0.005-0.197-0.011-0.395-0.015-0.593c-0.002-0.053-0.002-0.105-0.005-0.158
				c0-0.023,0-0.047,0-0.069c-0.001-0.043-0.003-0.086-0.007-0.129c-0.003-0.134,0.104-0.759,0.104-0.759l-0.124,0.032l0.075-0.214
				c0,0-0.222-2.061-0.208-2.04c0.224-0.442-0.208-0.7,0.06-0.733c-0.154-0.015-0.292-0.033-0.492-0.232
				c-0.518-0.034-0.735-0.22-0.702-0.125c-0.153,0.134-0.353-0.179-0.414,0.001c0.216-0.277-0.093-0.413-0.221-0.299
				c0.156,0.003,0.218-0.224,0.356-0.132c-0.05,0.083,0.186,0.012,0.21-0.276c0.112,0.106,0.678-0.231,1.023,0.095
				c0.564-0.007,0.755,0.03,0.949,0.121c0.283-0.12,0.653-0.054,1.021,0.039c0.069-0.076-0.068-0.105,0.254-0.104
				c0.136-0.274,0.259-0.019,0.654-0.109c0.152,0.071,0.521,0.282,0.522,0.028c0.19,0.269,0.003-0.004,0.198,0.254
				c0.071-0.147,0.134,0.096-0.017,0.26c0.202-0.168,0.245-0.071,0.109-0.024c-0.355,0.066-0.124,0.162-0.316,0.015
				c-0.008,0.064-0.359-0.005-0.441,0.308c-0.457-0.155-0.678,0.017-0.638,0.325c-0.029,0.06,0.009,0.175-0.029,0.554
				c-0.342,0.102-0.437,0.418-0.414,0.744c-0.054-0.029,0.091,1.94,0.239,1.997c0.081,0.284-0.033,0.291,0.122,0.397
				C109.62,28.821,114.591,28.951,114.463,28.621L114.463,28.621z"/>
			<path fill-rule="evenodd" clip-rule="evenodd" fill="#003663" d="M123.112,34.368c-1.624,0.177-2.812-0.41-3.856-1.259
				c-0.947-0.868-1.121-2.054-1.285-3.963c-0.024-0.721,0.108-1.081,0.33-2.066c0.504-0.661,0.612-0.848,0.961-1.593
				c0.775-0.356,1.023-0.548,1.719-0.848c0.848-0.139,1.478-0.621,2.209-0.565c0.833,0.169,1.461,0.443,2.146,0.485
				c0.863,0.082,1.101,0.676,1.89,1.105c0.27,0.226,0.871,0.858,0.915,1.628c0.564,0.945,0.287,3.721,0.043,4.334
				c-0.506,0.356-0.888,1.008-1.046,1.504c-0.671,0.597-0.995,0.577-1.935,0.888C124.593,34.267,123.996,34.553,123.112,34.368
				L123.112,34.368z M123.226,33.766c0.535,0.155,1.057-0.105,1.388-0.342c0.387-0.254,0.902-0.495,1.073-1.068
				c0.266-0.397,0.468-0.59,0.584-1.448c0.297-0.576,0.206-0.831,0.127-1.675c0.189-0.486-0.059-0.905-0.14-1.496
				c0.012-0.451-0.228-1.248-0.519-1.621c-0.209-0.276-0.593-0.483-0.993-0.911c-0.283-0.396-0.991-0.301-1.402-0.309
				c-0.69-0.186-1.03,0.037-1.583,0.431c-0.454,0.106-0.618,0.362-1.128,0.905c-0.159,0.34-0.324,1.083-0.424,1.593
				c-0.271,0.284-0.337,0.926-0.139,1.529c-0.119,0.719,0.084,0.967,0.002,1.587c0.128,0.563,0.377,1.071,0.595,1.493
				c0.147,0.545,0.668,0.951,0.999,0.934C122.104,33.741,122.67,33.93,123.226,33.766L123.226,33.766z"/>
			<path fill-rule="evenodd" clip-rule="evenodd" fill="#003663" d="M50.907,6.882c0.44-0.32,1.127-0.19,1.686-0.102
				c0.516,0.37,1.172,0.25,1.615,0.547c0.048,0.059,0.392,0.225,0.413,0.231c-0.066,0.081,0.114-0.112,0.105-0.1
				c0.2-0.025,0.299,0.024,0.393-0.165c-0.061-0.187-0.031-0.214,0.116-0.451c0.344-0.034,0.381,0.114,0.647-0.119
				c-0.087,0.2-0.105,0.107,0.109,0.222c-0.3,0.313-0.097,0.687-0.417,1.036c0.185,0.054,0.056,0.469,0.165,0.406
				c-0.052,0.479,0.03,0.859,0.02,0.935c0.196,0.489,0.186,1.012,0.355,0.977c-0.4,0.022-0.319,0.153-0.411,0.353
				c0.185-0.089-0.139,0.007,0.125,0.202c-0.483-0.11-0.16-0.45-0.392-0.238c-0.249-0.244-0.258-0.288-0.077-0.265
				c-0.502-0.881-0.855-1.7-1.714-2.361c-0.684-0.284-1.464-0.486-2.922-0.58c-0.565,0.098-1.301,0.275-1.963,0.325
				c-0.605,0.663-0.849,1.117-1.14,1.515c-0.467,0.684-0.491,0.83-0.705,1.457c-0.366,0.571-0.436,1.558-0.189,1.946
				c0.189,0.753,0.17,1.474,0.281,2.213c0.019,0.556,0.353,1.268,0.824,1.629c0.302,0.602,0.371,0.945,0.944,1.243
				c0.803,0.605,1.286,0.87,2.109,0.483c0.651,0.317,1.431,0.343,1.636,0.142c0.674,0.073,1.306-0.396,1.558-0.406
				c0.44-0.48,0.688-0.777,0.86-1.594c0.353-0.454,0.584-0.556,0.539-1.545c-0.039,0.013,0.149,0.172,0.013-0.022
				c-0.028,0.166,0.052,0.049,0.211,0.011c-0.051,0.196,0.372-0.009,0.108,0.096c0.05,0.232,0.208,0.317,0.211,0.197
				c0.103,0.309-0.111,0.223,0.015,0.416c0.147,0.648-0.227,0.491-0.142,0.898c-0.101,0.29-0.069,0.56,0.121,1.215
				c0.107,0.669,0.116,1.318,0.116,1.584c-0.162,0.008-0.297,0.071-0.281,0.008c-0.118,0.011-0.109,0.031-0.243-0.004
				c0.029-0.184-0.175-0.554-0.142-0.81c-0.472-0.348-0.76-0.088-0.619-0.194c-0.376,0.151-0.25,0.172-0.545,0.238
				c-0.389,0.216-0.61,0.407-0.924,0.28c-0.187,0.421-0.374,0.291-0.466,0.377c-0.215,0.107-1.096,0.249-1.075,0.124
				c-0.672-0.096-0.431,0.137-0.976,0.04c-2.394-0.019-3.991-0.673-4.912-1.584c-1.206-0.835-1.643-2.943-1.49-4.828
				c-0.391-0.715,0.173-2.048,0.128-2.429c0.736-0.996,0.839-1.575,1.638-2.273c0.424-0.161,1.102-0.818,2.25-1.25
				C49.31,6.73,49.997,6.86,50.907,6.882L50.907,6.882z"/>
			<path fill-rule="evenodd" clip-rule="evenodd" fill="#003663" d="M62.352,19.263c-1.55-0.083-3.08-0.329-3.991-1.411
				c-0.876-0.744-1.328-1.921-1.404-3.682c-0.012-0.642,0.31-1.358,0.753-2.031c0.158-0.684,0.562-0.909,0.724-1.702
				c0.626-0.374,0.967-0.6,1.985-0.978c0.454-0.114,1.087-0.098,1.997-0.097c0.785-0.067,1.408-0.117,1.988,0.261
				c0.578,0.052,1.125,0.716,1.566,1.015c0.577,0.288,0.733,0.684,0.932,1.584c0.503,0.597,0.683,1.064,0.624,1.989
				c-0.107,0.615-0.36,1.588-0.468,2.019c-0.262,0.586-0.718,1.11-0.958,1.774c-0.444,0.34-1.341,0.93-2.055,0.942
				C63.448,19.159,63.122,19.329,62.352,19.263L62.352,19.263z M62.392,18.657c0.546-0.074,0.831-0.043,1.219-0.504
				c0.412-0.16,0.743-0.418,0.965-0.901c0.258-0.334,0.583-0.847,0.836-1.431c0.081-0.594,0.175-0.88-0.007-1.762
				c0.102-0.493-0.078-0.934,0.05-1.583c-0.225-0.417-0.448-0.766-0.61-1.173c-0.228-0.467-0.597-0.944-1.04-1.063
				c-0.445-0.407-0.942-0.236-1.549-0.347c-0.48-0.12-1.084-0.093-1.524,0.427c-0.252,0.253-0.55,0.411-0.846,0.989
				c-0.322,0.229-0.585,0.917-0.606,1.267c-0.116,0.485-0.234,1.013-0.091,1.758c0.018,0.488-0.03,0.996,0.02,1.339
				c0.123,0.519,0.299,1.268,0.512,1.683c0.181,0.171,0.519,0.541,0.982,0.759C61.142,18.537,61.615,18.521,62.392,18.657
				L62.392,18.657z"/>
			<path fill-rule="evenodd" clip-rule="evenodd" fill="#003663" d="M69.544,11.515c0.248,0.245,0.219,0.534,0.231,0.732
				c0.155,0.226,0.337,0.179,0.696,0.28c0.007,0.116,0.413,0.511,0.59,0.498c0.26,0.244,0.396,0.107,0.611,0.39
				c0.35,0.097,0.709,0.06,1.12,0.272c0.429,0.15,0.733,0.534,0.968,0.897c0.305,0.162,0.588,0.615,0.75,0.764
				c0.196,0.223,0.499,0.844,0.507,1.08c-0.114,0.794-0.217,1.131-0.539,1.513c-0.064,0.369-0.287,0.286-0.778,0.759
				c-0.368,0.286-1.882,0.628-2.403,0.547c-0.465-0.052-1.803-0.245-2.108-0.656c0.087,0.134-0.086,0.209-0.083,0.086
				c-0.07-0.066,0.03,0.084-0.19-0.08c-0.121-0.002-0.144,0.086-0.203,0.288c-0.159-0.09-0.093-0.121-0.188,0.352
				c-0.105-0.027-0.126,0.057-0.299,0.008c-0.066,0.008-0.136-0.117-0.202-0.083c0.128-0.193,0.159-2.114,0.037-2.069
				c0.049-0.434-0.109-0.692,0.009-0.907c0.063-0.024-0.147-0.155-0.043-0.273c0.12,0.063,0.168-0.102,0.175,0.095
				c0.262,0.005,0.245-0.22,0.162,0.097c0.186-0.294,0.239-0.043,0.219-0.006c-0.059,0.441,0.267,0.658,0.293,1.191
				c0.148,0.336,0.51,0.491,0.641,0.467c0.325,0.336,0.571,0.432,0.816,0.592c0.423,0.072,0.773,0.372,0.954,0.259
				c0.3,0.038,0.526-0.131,0.915,0.113c0.122-0.144,0.369-0.507,0.634-0.315c0.246-0.156,0.362-0.651,0.541-0.767
				c-0.057,0.023,0.197-0.237,0.114-0.438c-0.106-0.652-0.225-0.671-0.178-1.124c-0.275-0.335-0.504-0.531-0.822-0.428
				c-0.214-0.508-0.345-0.388-0.647-0.8c-0.255-0.096-0.567-0.257-0.95-0.225c-0.189,0.037-0.503-0.1-0.942-0.576
				c-0.414-0.142-0.704-0.15-0.751-0.404c-0.34-0.218-0.713-0.248-0.694-0.664c-0.235-0.501-0.421-0.546-0.165-1.057
				c-0.169-0.71,0.02-0.771,0.072-1.173c0.419-0.53,0.534-0.672,0.818-0.979c0.471,0.181,0.837-0.179,1.127-0.236
				c0.372-0.131,1.171-0.21,1.171-0.21s0.616-0.061,0.991,0.077c0.18,0.058,0.362-0.005,0.552,0.281
				c0.153-0.032,0.369,0.087,0.359,0.019c0.24,0.027,0.325,0.042,0.358,0.197c0.053,0.037,0.182-0.328,0.167-0.574
				c0.249-0.026,0.442,0.024,0.5,0c0.026,0.124-0.041,0.219-0.01,0.519c-0.191,0.131-0.195-0.018-0.167,0.311
				c0.054,0.055-0.077,0.532,0.059,0.507c-0.147,0.441-0.09,0.681-0.113,0.637c0.155,0.206,0.109,0.403,0.204,0.804
				c-0.008-0.182,0.04-0.066,0.054,0.066c-0.2-0.025-0.239,0.028-0.349,0.047c-0.109-0.281-0.06-0.312-0.218-0.33
				c-0.169-0.29-0.276-0.538-0.33-0.826c-0.212-0.102-0.202-0.368-0.422-0.84c-0.277,0.082-0.371,0.094-0.717-0.224
				c-0.266,0.227-0.66,0.042-0.836,0.178c-0.211-0.053-0.633,0.035-0.864,0.105c-0.018-0.151-0.297,0.076-0.426,0.228
				c-0.251-0.084-0.429,0.166-0.581,0.31C69.666,10.984,69.609,11.179,69.544,11.515L69.544,11.515z"/>
			<path fill-rule="evenodd" clip-rule="evenodd" fill="#003663" d="M81.086,11.555c-0.152,0.109-0.011,0.261-0.014,0.41
				c-0.009,0.229-0.094,0.688-0.022,0.751c0.072,0.065-0.022,1.14-0.025,1.717c-0.006,0.636-0.156,1.781,0.005,1.717
				c0.162-0.065,0.035,0.922,0.071,0.922c0.124,0.496-0.123,0.692-0.139,0.718c0.343,0.378,0.1,0.556,0.403,0.617
				c0.225-0.005,0.346,0.21,0.342,0.055c0.267,0.296,0.501,0.269,1.026,0.15c0.105,0.004-0.162-0.041,0.148,0.13
				c0.1,0.071-0.079,0.31-0.001,0.162c0.039,0.053-0.147,0.167-0.077,0.341c-0.638-0.083-0.835,0.081-1.427-0.05
				c-0.409,0.055-0.684,0.005-1.068,0.05c-0.729-0.196-0.999,0.069-1.534-0.05c-0.274,0.05-0.751,0.038-1.009,0.05
				c0.084-0.083-0.445,0.153-0.21-0.032c-0.337-0.153-0.025-0.065-0.032-0.189c0.137-0.28-0.237-0.124-0.036-0.212
				c0.075,0.13-0.109-0.036,0.048-0.078c0.242-0.07,0.84,0.024,0.962-0.014c0.183-0.337,0.477-0.176,0.459-0.362
				c0.093-0.256,0.136-0.227,0.493-0.313c-0.251-0.403-0.012-0.627-0.186-0.812c0.058,0.021,0.043-1.106,0.199-1.084
				c0.155,0.022,0.061-0.743,0.085-1.172c0.024-0.418,0.14-0.694,0.05-1.296c-0.096-0.6,0-0.444,0-0.66
				c-0.006-0.422,0.164-0.134-0.04-1.164c-0.198-1.029-0.071-1.125-0.073-1.149c-0.192-0.232-0.095-0.374-0.445-0.602
				c-0.196-0.297-0.522-0.021-1.12-0.319c-0.221,0.129-0.457,0.185-0.868,0.264c-0.035,0.111-0.477,0.248-0.607,0.093
				c-0.101,0.114-0.36,0.357-0.257,0.689c-0.207,0.352-0.267,0.654-0.236,0.791c0.019,0.405-0.02,0.289-0.079,0.369
				c-0.178-0.085-0.362,0.015-0.332-0.075c-0.17,0.084-0.064,0.096-0.212-0.106c-0.135,0.008-0.063-0.027-0.18-0.099
				c0.139-0.128,0.304-0.556,0.204-1.031c0.034-0.491-0.069-0.866-0.106-1.174c0.037-0.024,0.135-0.246,0.25-0.177
				c0.217,0,0.435-0.052,0.612-0.034c0.016,0.041,1.105-0.024,1.693,0.082c0.587,0.108,0.594,0.009,0.917,0.01
				c0.411,0.004,0.329-0.07,0.329-0.07s1.668,0.077,2.021,0.076c0.327,0,0.649-0.002,0.953-0.003
				c0.126-0.003,0.039-0.101,0.37-0.004c0.329,0.099,0.397-0.004,0.579-0.007c0.332-0.006,0.618-0.011,0.853-0.017
				c0.37-0.01,0.597-0.021,0.612-0.035c0.175-0.127,0.574,0.036,0.713,0.134c0.078-0.204-0.049-0.162,0.171,0.299
				c-0.248,0.005-0.281,0.052-0.227,0.162c0.184,0.265,0.036,0.347-0.164,0.519c0.317,0.388,0.189,0.5,0.164,0.783
				c-0.076,0.03,0.222,0.392,0.101,0.629c-0.174-0.018,0.019-0.057-0.025,0.109c-0.248,0.08-0.274-0.142-0.287-0.067
				c0.135,0.053-0.109,0.095-0.174-0.065c0.082,0.094,0.118,0.212-0.217,0.148c0.027-0.365,0.121-0.775-0.012-1.215
				c-0.113-0.109-0.154-0.271-0.544-0.49c-0.07-0.062-0.374-0.078-0.445-0.289c-0.465-0.093-0.892-0.168-0.904-0.028
				c-0.583-0.129-0.956-0.106-1.274,0.129c-0.133-0.112-0.413,0.406-0.16,0.76C81.124,10.844,81.239,11.445,81.086,11.555
				L81.086,11.555z"/>
			<path fill-rule="evenodd" clip-rule="evenodd" fill="#003663" d="M88.098,8.911c0.069,0.051,0.022,0.049-0.073,0.068
				c0,0.037-0.046,0.035-0.056,0.044c-0.137-0.01-0.136-0.039-0.196-0.044c0.003,0.007-0.047-0.046,0.047-0.095
				c0.065-0.1,0.013-0.23,0.114-0.328c0.052-0.165,0.091-0.267,0.21-0.392c0.02-0.11,0.192-0.223,0.27-0.284
				c0.102-0.057,0.317-0.124,0.464-0.119c0.209-0.008,0.339,0.036,0.434,0.119c0.167,0.019,0.292,0.096,0.346,0.18
				c0.151,0.066,0.383,0.148,0.49,0.208c0.004,0.031,0.147,0.072,0.317,0.06c0.075-0.011,0.185-0.056,0.269-0.107
				c0.107-0.111,0.08-0.235,0.174-0.398c0.113-0.065,0.05-0.134,0.234-0.119C91.13,7.74,91.258,7.75,91.277,7.823
				c-0.1,0.062-0.074,0.199-0.074,0.336c-0.008,0.137-0.139,0.267-0.168,0.421C90.89,8.682,90.84,8.8,90.769,8.854
				c-0.097,0.124-0.275,0.156-0.474,0.145c-0.126,0.014-0.227-0.011-0.475-0.112c-0.067-0.022-0.265-0.095-0.41-0.197
				c-0.168-0.065-0.244-0.154-0.422-0.21c-0.076-0.078-0.196-0.081-0.376-0.095c-0.054-0.003-0.171,0.083-0.32,0.154
				C88.182,8.684,88.182,8.767,88.098,8.911L88.098,8.911z"/>
			<path fill-rule="evenodd" clip-rule="evenodd" fill="#003663" d="M89.984,15.872h-0.002
				C89.994,15.874,89.994,15.873,89.984,15.872L89.984,15.872z M91.312,17.901C91.248,17.923,91.254,17.957,91.312,17.901
				L91.312,17.901L91.312,17.901z M94.87,18.696c-0.042,0.102-0.437,0.039-0.522,0.02c-0.292-0.039-0.268-0.198-0.345-0.271
				c-0.125-0.074-0.567-0.035-0.633-0.207c-0.244-0.052-0.237-0.654-0.466-0.886c0.099-0.58-0.291-1.151-0.685-1.68
				c-0.146-0.917-0.523-1.709-0.905-2.351c-0.17-0.648-0.519-1.476-1.091-2.133c-0.165-0.675-0.432-1.241-0.518-1.701
				c-0.033-0.197-0.56-0.163-0.56-0.163s-0.058-0.019-0.273,0.002c0.069,0.065-0.227,0.842-0.667,1.883
				c-0.046,0.106-0.433,0.662-0.141,0.326c0.293-0.336-0.078,0.183-0.117,0.278c-0.179,0.411-0.373,0.845-0.568,1.284
				c-0.064,0.142-0.129,0.286-0.196,0.429c-0.067,0.151-0.149-0.091-0.201,0.452c-0.053,0.542-0.336,0.725-0.489,1.062
				c-0.115,0.244-0.351,0.361-0.326,0.693c0.025,0.33-0.692,1.45-0.714,1.456c-0.223,0.456-0.303,0.862-0.577,1.045
				c0.047,0.038-0.257,0.239-0.291,0.207c-0.106,0.26-0.698,0.203-0.71,0.219c-0.019-0.011-0.04,0.293-0.04,0.601
				c0.226-0.236,0.476,0.154,1.05-0.047c-0.049-0.045,0.947,0.061,0.924,0c0.163-0.04,0.358,0.032,0.645,0.031
				c0.443-0.049,0.244-0.07,0.601-0.003c0.064-0.045,0.275-0.142,0.536-0.021c0.049-0.041-0.27-0.238-0.327-0.287
				c0.105-0.069,0.165-0.136,0.196-0.171c0.048-0.143,0.006-0.223-0.189-0.191c-0.124-0.054-0.494,0.154-0.556-0.007
				c0.012-0.118-0.317-0.022-0.208-0.088c-0.197,0.039-0.183-0.166-0.252,0.002c-0.203-0.332,0.046-0.385-0.087-0.63
				c-0.267,0.014-0.122,0.105-0.163-0.227c0.097-0.093,0.666-1.59,0.982-1.535c-0.045-0.201,0.029-0.22-0.036-0.428
				c0.231-0.073,0.396,0.127,0.277,0.004c0.11-0.076,2.609,0.189,2.759,0.209c0.163-0.083,0.261,0.025,0.568-0.243
				c0.139,0.201-0.034,0.325,0.034,0.29c0.387,0.408,0.338,0.767,0.505,0.97c0.163,0.167,0.266,0.268-0.056,0.445
				c0.15,0.153,0.352,0.385,0.446,0.331c-0.075,0.132-0.131,0.2-0.169,0.235c0.015-0.006,0.038-0.01,0.067-0.012
				c0.039,0.634-0.793,0.712-1.036,0.672c0.13,0.041-0.281,0.846-0.111,0.685c0.168,0,1.865-0.024,2.42-0.013
				c0.123-0.047,0.719,0.013,1.175,0.062c-0.077-0.112,1.054,0.087,0.951-0.082C94.815,19.141,94.807,19.068,94.87,18.696
				L94.87,18.696z M90.204,15.086c-0.004,0.03-0.083,0.133-0.295,0.088c0.033-0.029-2.379-0.009-2.43,0.005
				c-0.101-0.016-0.237,0.05-0.258-0.037c0.005-0.07-0.049-0.1,0.066-0.228c-0.027,0.03,1.39-3.277,1.388-3.186
				c-0.015-0.141,0.101-0.147,0.126-0.193c-0.013,0.034,0.062,0.129,0.054,0.105c0.028-0.034,1.32,3.275,1.41,3.296
				C90.284,15.01,90.292,15.107,90.204,15.086L90.204,15.086z M87.458,18.763c-0.013,0.038-0.028,0.078-0.051,0.123
				C87.477,18.731,87.499,18.716,87.458,18.763L87.458,18.763z M87.071,19.246c-0.008,0-0.011-0.002-0.018-0.003
				C87.027,19.264,87.027,19.273,87.071,19.246L87.071,19.246z"/>
			<path fill-rule="evenodd" clip-rule="evenodd" fill="#003663" d="M99.159,19.269c-1.758-0.073-2.956-0.657-3.908-1.297
				c-0.743-0.753-0.997-2.231-1.239-3.767c0.136-0.564,0.209-1.486,0.518-2.018c0.366-0.511,0.334-0.911,1.146-1.574
				c0.308-0.218,0.862-0.627,1.318-0.759c0.708-0.333,1.494-0.26,2.299-0.483c0.456-0.1,1.479,0.144,1.934,0.235
				c0.603,0.457,1.255,0.809,1.516,1.229c0.647,0.418,1.004,0.931,1.211,1.228c0.19,0.582,0.161,1.564,0.422,2.332
				c-0.216,0.729-0.373,1.36-0.728,1.83c0.044,0.895-0.277,1.295-1.058,1.6c-0.309,0.311-0.657,0.864-1.527,0.963
				C100.338,18.871,99.903,19.332,99.159,19.269L99.159,19.269z M99.214,18.677c0.39-0.066,0.855-0.339,1.201-0.419
				c0.475-0.179,0.92-0.714,1.032-1.019c0.346-0.274,0.518-0.968,0.684-1.427c0.208-0.443,0.038-0.881,0.264-1.645
				c-0.086-0.354-0.132-0.95-0.343-1.375c-0.057-0.603-0.175-0.896-0.384-1.492c-0.418-0.491-0.527-0.7-1.034-1.063
				c-0.411-0.042-0.833-0.138-1.529-0.135c-0.422,0.004-0.89,0.138-1.311,0.135c-0.436,0.244-0.86,0.86-0.947,1.304
				c-0.387,0.334-0.591,0.723-0.762,1.11c0.07,0.757,0.035,1.175-0.161,1.6c0.091,0.457,0.258,1.199,0.205,1.613
				c0.032,0.4,0.324,0.879,0.498,1.343c0.393,0.498,0.682,0.624,0.992,0.889C98.103,18.481,98.619,18.731,99.214,18.677
				L99.214,18.677z"/>
			<path fill-rule="evenodd" clip-rule="evenodd" fill="#003663" d="M108.638,16.109c0.018-0.4-0.12-0.523-0.12-0.523l0.138-0.307
				c0,0,0.053-1.883,0.066-2.797c0.004-0.533-0.178-0.305-0.178-0.305s0.179-0.742,0.033-0.841c-0.06-0.211-0.252-0.189-0.051-0.369
				c-0.234-0.345-0.221-0.545-0.216-0.425c-0.137-0.45-0.353-0.533-0.737-0.229c-0.076-0.301-0.533-0.32-0.675-0.215
				c0.167,0.092,0.014-0.287,0.086-0.405c0.129-0.057-0.195,0.077,0.059-0.301c0.297,0.245,0.516,0.173,0.752,0.214
				c0.298-0.065,0.916,0.151,1.061,0.13c0.3-0.063,1.079,0.074,1.542-0.127c0.159-0.068,0.834,0.093,1.117-0.083
				c0.81-0.1,1.384,0.121,2.359,0.418c0.433,0.136,1.215,0.783,1.695,1.058c0.475,0.273,0.983,0.78,1.451,1.495
				c-0.039,0.788,0.22,1.332,0.194,2.037c-0.011,0.812-0.139,1.612-0.191,1.963c-0.46,0.722-0.916,1.269-1.252,1.735
				c-0.706,0.303-1.294,0.505-1.609,0.613c-0.739,0.298-1.526,0.368-2.335,0.377c-0.442,0.139-1.043-0.123-1.43,0.07
				c-0.351-0.065-0.674-0.279-1.267-0.155c0.055-0.069-0.365-0.079-0.208,0.079c-0.292-0.045-0.523-0.266-0.897-0.245
				c-0.016,0.302-0.304,0.009-0.38,0.261c-0.064,0.087-0.269,0.112-0.652-0.072c-0.06-0.039-0.011-0.572,0.003-0.542
				c0.584,0.213,0.704-0.053,0.875-0.06c0.101,0.103,0.334-0.028,0.528-0.035c0.031-0.384-0.132-0.341,0.066-0.472
				c0.238-0.209,0.174-0.189,0.055-0.56C108.451,17.477,108.561,17.676,108.638,16.109L108.638,16.109z M110.254,11.454
				l-0.045,0.262l0.02,0.927l-0.107,0.686l0.12-0.069l0.039,1.886l-0.124,0.332l0.144,1.145c0,0,0.039,0.561,0.021,0.928
				c0.023,0.263,0.04,0.651,0.293,0.785c0.046-0.012,0.286,0.034,0.596,0.289c0.237-0.242,0.54-0.22,0.868,0.086
				c0.481-0.239,0.934-0.323,1.315-0.395c0.524-0.083,0.831-0.358,1.01-0.84c0.381-0.22,0.595-0.642,0.721-1.366
				c0.113-0.314,0.231-1.025,0.271-1.463c-0.148-0.907-0.134-1.329-0.267-1.926c-0.105-0.539-0.537-0.852-0.796-1.538
				c-0.374-0.156-0.891-0.499-1.497-0.663c-0.57-0.257-1.141-0.172-2.1-0.188c-0.266-0.054-0.235,0.106-0.293,0.008
				c-0.203,0.019-0.121,0.297-0.19,0.339C110.252,10.66,110.254,11.454,110.254,11.454L110.254,11.454z"/>
			<path fill-rule="evenodd" clip-rule="evenodd" fill="#003663" d="M123.23,19.166c-1.525,0.092-2.95-0.155-3.895-1.057
				c-0.612-0.918-1.287-2.171-1.067-3.672c-0.37-0.958-0.049-1.66,0.121-2.006c0.216-0.893,0.793-1.101,1.307-1.714
				c0.498-0.37,0.772-0.8,1.366-0.995c0.774-0.248,1.519-0.39,2.126-0.378c0.901-0.024,1.719,0.114,2.219,0.356
				c0.761,0.143,1.154,0.597,1.762,0.786c0.427,0.576,0.583,0.954,0.849,1.793c0.258,0.363,0.531,1.157,0.321,2.018
				c-0.059,0.573,0.157,1.471-0.337,2.159c-0.265,0.529-0.687,1.2-0.9,1.583c-0.757,0.358-1.316,0.493-1.738,0.735
				C124.862,19.204,123.816,19.295,123.23,19.166L123.23,19.166z M123.313,18.585c0.565,0.081,0.916,0.109,1.287-0.191
				c0.575-0.313,0.768-0.635,1.171-0.889c0.036-0.613,0.363-1.11,0.451-1.408c0.112-0.776,0.319-1.05,0.346-1.772
				c0.028-0.492-0.199-1.109-0.335-1.599c-0.022-0.533-0.178-1.023-0.528-1.42c-0.158-0.433-0.409-0.741-0.906-0.983
				c-0.33-0.329-0.926-0.341-1.432-0.547c-0.569,0.13-1.175,0.14-1.575,0.605c-0.404,0.049-0.645,0.492-1.036,1.011
				c-0.29,0.193-0.266,0.812-0.527,1.389c-0.115,0.438-0.21,1.096-0.049,1.591c-0.181,0.503-0.134,0.884,0.095,1.429
				c0.185,0.712,0.352,1.007,0.587,1.699c0.061,0.27,0.604,0.424,0.939,0.759C122.194,18.493,122.598,18.698,123.313,18.585
				L123.313,18.585z"/>
		</g>
		<g>
			<path fill="#FFCB05" d="M46.642,45.721c-0.428-0.051-0.878-0.225-1.072-0.459c-0.225-1.338-0.266-2.185-0.266-3.115
				c0-1.235,0.071-2.665,0.071-4.728c0.367,0,1.552,0.46,1.614,0.644c-0.276,0.755-0.388,2.553-0.388,4.187
				c0,1.236,0.04,1.858,0.153,2.512c1.134-3.462,3.094-7.189,3.727-7.25c0.296,0.051,0.705,0.377,0.827,0.673
				c-1.521,0.531-3.849,5.8-4.166,7.413C46.989,45.68,46.816,45.721,46.642,45.721z"/>
			<path fill="#FFCB05" d="M50.256,42.32c0.061-0.266,0.357-1.328,0.97-1.634c0.225,0.051,0.684,0.276,0.95,0.674
				c-0.623,0.694-0.807,1.42-1.154,2.318c-0.143,0.378-0.297,0.817-0.307,1.113c0,0.245,0,0.337-0.062,0.337
				c-0.102,0-0.745-0.266-0.745-0.868C49.909,44.026,49.991,43.546,50.256,42.32z M51.89,39.645
				c-0.072-0.071-0.123-0.225-0.123-0.337c0-0.235,0.143-0.899,0.317-1.337c0.317,0,1.031,0.408,1.236,0.715
				c-0.306,0.286-1.052,1.195-1.154,1.419c-0.164-0.031-0.306-0.164-0.306-0.276C51.859,39.788,51.87,39.727,51.89,39.645z"/>
			<path fill="#FFCB05" d="M53.605,40.452c0.194,0,0.47,0.041,0.583,0.143c-0.113,0.449-0.133,0.623-0.153,1.542
				c-0.021,0.929-0.051,1.603-0.276,2.328c0,0.041,0.01,0.041,0.031,0.041c0.399-0.307,1.103-1.195,1.583-1.991
				c0.326-0.562,0.776-1.481,1.031-2.451c0.174,0,0.552,0.143,0.634,0.235c-0.051,1.164-1.123,2.512-1.767,3.247
				c-0.653,0.766-1.246,1.327-2.165,1.889c-0.357-0.132-0.572-0.378-0.572-0.623c0-0.337,0.367-0.735,0.367-2.277
				c0-0.449-0.03-0.96-0.03-1.205C52.87,40.829,52.983,40.452,53.605,40.452z"/>
			<path fill="#FFCB05" d="M61.161,41.177c-0.552,1.144-0.929,2.348-0.929,3.043c0,0.378,0.081,0.644,0.265,0.746
				c-0.163,0.102-0.459,0.184-0.664,0.184c-0.367,0-0.551-0.245-0.551-0.756c0-0.377,0.132-0.929,0.388-1.593
				c-0.552,1.246-1.45,2.267-2.083,2.369c-0.5-0.02-0.847-0.531-0.847-1.236c0-1.522,1.47-3.605,2.573-3.666
				c0.276,0.071,0.735,0.551,0.766,0.807c-1.092,0.174-2.43,1.981-2.43,3.237c0,0.143,0.051,0.214,0.143,0.245
				c0.398-0.081,0.888-0.653,1.623-1.879c0.286-0.479,0.695-1.245,0.991-1.858C60.691,40.819,61.171,41.044,61.161,41.177z"/>
			<path fill="#FFCB05" d="M65.041,43.75c0,0.082-0.01,0.174-0.01,0.266c0,0.348,0.082,0.817,0.47,0.817
				c0.735,0,1.439-0.735,1.869-1.195c0.071,0.061,0.122,0.112,0.173,0.173c-0.613,0.807-1.399,1.389-2.042,1.532
				c-0.94-0.102-1.491-0.745-1.491-1.562c0-1.674,1.532-3.645,2.879-3.645c0.307,0.041,0.603,0.235,0.879,0.582
				C67.665,42.392,66.777,43.056,65.041,43.75z M65.123,43.362c1.082-0.541,1.889-1.378,1.94-2.308
				C66.317,41.156,65.449,42.096,65.123,43.362z"/>
			<path fill="#FFCB05" d="M71.208,42.055c-0.081-0.01-0.122-0.061-0.133-0.153c0-0.081,0.164-0.388,0.164-0.551
				c0-0.194-0.102-0.337-0.246-0.337c-0.541,0-0.837,0.704-0.837,2.011c0,0.081,0,0.102,0.01,0.123
				c0.286-0.01,0.5-0.021,0.714-0.021c0.011,0.021,0.011,0.031,0.011,0.082c0,0.051-0.02,0.112-0.041,0.133
				c-0.633,0.143-0.684,0.164-0.684,0.317c0,0.102,0.01,0.204,0.01,0.368c0,1.133-0.664,1.869-1.756,1.98
				c-0.388-0.03-0.858-0.418-0.97-0.796c0-1.041,0.92-1.92,2.104-2.001c0-0.694-0.317-1.287-0.317-1.858
				c0-0.725,0.633-1.511,1.347-1.664c0.307,0.082,1.093,0.878,1.175,1.195C71.729,41.401,71.423,42.055,71.208,42.055z
				 M69.595,43.74c-0.531,0.071-1.409,0.96-1.409,1.43c0,0.153,0.071,0.276,0.204,0.367C69.043,45.271,69.595,44.444,69.595,43.74z"
				/>
			<path fill="#FFCB05" d="M72.372,41.034c-0.061-0.082-0.132-0.419-0.132-0.603c0.357,0.02,0.684,0.051,0.96,0.061
				c0.408-0.807,1-1.685,1.225-1.807c0.276,0,0.929,0.214,1.062,0.367c-0.408,0.511-0.664,0.909-1.001,1.481
				c0.266,0,0.552-0.011,0.837-0.041c0.061,0.061,0.112,0.173,0.112,0.286c-0.327,0.122-0.745,0.194-1.215,0.204
				c-0.673,1.307-1.082,2.634-1.082,3.472c0,0.307,0.122,0.47,0.336,0.5c0.409-0.05,0.786-0.214,1.072-0.439
				c0.03,0.051,0.061,0.113,0.071,0.153c-0.153,0.235-0.888,0.725-1.113,0.745c-0.674-0.02-1.45-0.602-1.45-1.082
				c0-0.663,0.378-2.042,0.899-3.298H72.372z"/>
			<path fill="#FFCB05" d="M79.642,41.177c-0.551,1.144-0.929,2.348-0.929,3.043c0,0.378,0.082,0.644,0.266,0.746
				c-0.164,0.102-0.46,0.184-0.664,0.184c-0.368,0-0.552-0.245-0.552-0.756c0-0.377,0.133-0.929,0.388-1.593
				c-0.551,1.246-1.45,2.267-2.083,2.369c-0.501-0.02-0.848-0.531-0.848-1.236c0-1.522,1.47-3.605,2.574-3.666
				c0.275,0.071,0.735,0.551,0.765,0.807c-1.092,0.174-2.43,1.981-2.43,3.237c0,0.143,0.051,0.214,0.143,0.245
				c0.398-0.081,0.888-0.653,1.624-1.879c0.286-0.479,0.694-1.245,0.99-1.858C79.173,40.819,79.652,41.044,79.642,41.177z"/>
			<path fill="#FFCB05" d="M83.521,43.75c0,0.082-0.01,0.174-0.01,0.266c0,0.348,0.081,0.817,0.469,0.817
				c0.735,0,1.44-0.735,1.869-1.195c0.071,0.061,0.123,0.112,0.174,0.173c-0.613,0.807-1.399,1.389-2.043,1.532
				c-0.939-0.102-1.491-0.745-1.491-1.562c0-1.674,1.532-3.645,2.88-3.645c0.307,0.041,0.603,0.235,0.878,0.582
				C86.146,42.392,85.257,43.056,83.521,43.75z M83.603,43.362c1.082-0.541,1.889-1.378,1.94-2.308
				C84.798,41.156,83.93,42.096,83.603,43.362z"/>
			<path fill="#FFCB05" d="M89.036,45.292c-0.225-0.266-0.542-0.756-0.797-1.378c-0.694,0.623-1.419,1.154-2.011,1.501
				c-0.143-0.031-0.255-0.173-0.266-0.388c0.541-0.296,1.573-1.031,2.083-1.624c-0.459-1.082-0.806-2.42-0.806-2.951
				c0-0.184,0.031-0.235,0.204-0.235c0.286,0,0.817,0.112,1.123,0.214c-0.02,0.143-0.02,0.224-0.02,0.429
				c0,0.531,0.082,1.072,0.286,1.705c0.562-0.643,1.011-1.378,1.501-2.471c0.337,0.061,0.613,0.204,0.674,0.357
				c-0.153,0.623-0.888,1.634-1.961,2.706c0.184,0.521,0.47,1.103,0.796,1.726C89.699,45.118,89.321,45.271,89.036,45.292z"/>
			<path fill="#FFCB05" d="M90.108,48.018c-0.051-0.174-0.071-0.429-0.071-0.735c0-0.583,0.398-2.053,0.99-3.554
				c0.745-1.879,1.041-2.706,1.185-3.155c0.102-0.317,0.49-1.011,0.735-1.226c0.469,0.071,0.97,0.276,1.061,0.439
				c-0.387,0.357-1.02,1.603-1.215,2.318c0.132-0.225,0.317-0.47,0.766-0.94c0.5-0.521,0.96-0.807,1.287-0.807
				c0.521,0,0.888,0.316,0.888,0.766c0,0.98-0.347,1.98-0.95,2.757c-0.47,0.603-1.317,1.134-1.838,1.134
				c-0.246,0-0.449-0.112-0.511-0.266c1.052-0.623,2.073-2.338,2.4-4.085c-0.521,0.276-0.909,0.562-1.317,1.072
				c-0.97,1.205-1.072,1.327-1.348,1.971c-0.388,0.868-1.021,2.971-1.501,4.973c-0.071-0.011-0.133-0.051-0.194-0.164
				c-0.112-0.122-0.143-0.163-0.204-0.194C90.189,48.304,90.118,48.182,90.108,48.018z"/>
			<path fill="#FFCB05" d="M97.03,43.75c0,0.082-0.01,0.174-0.01,0.266c0,0.348,0.082,0.817,0.47,0.817
				c0.735,0,1.439-0.735,1.869-1.195c0.071,0.061,0.122,0.112,0.173,0.173c-0.613,0.807-1.399,1.389-2.042,1.532
				c-0.94-0.102-1.491-0.745-1.491-1.562c0-1.674,1.532-3.645,2.88-3.645c0.306,0.041,0.603,0.235,0.878,0.582
				C99.655,42.392,98.766,43.056,97.03,43.75z M97.112,43.362c1.082-0.541,1.889-1.378,1.94-2.308
				C98.307,41.156,97.438,42.096,97.112,43.362z"/>
			<path fill="#FFCB05" d="M101.206,40.84c0.173-0.419,0.296-0.633,0.459-0.796c0.378,0.061,0.858,0.296,1.021,0.49
				c-0.368,0.429-0.623,0.95-0.909,1.817c0.725-0.653,1.277-1.205,1.766-1.94c0.051-0.04,0.102-0.051,0.215-0.051
				c0.194,0,0.398,0.071,0.459,0.174c-0.122,0.326-0.184,0.643-0.184,0.97c0,0.296,0.041,0.521,0.133,0.674
				c-0.01,0.081-0.215,0.357-0.418,0.562c-0.367-0.184-0.674-0.541-0.807-0.94c-1.287,0.888-1.725,1.614-2.124,3.492
				c-0.245-0.02-0.745-0.347-0.837-0.551C100.113,43.944,100.716,42.004,101.206,40.84z"/>
			<path fill="#FFCB05" d="M104.698,42.32c0.061-0.266,0.357-1.328,0.97-1.634c0.225,0.051,0.684,0.276,0.95,0.674
				c-0.623,0.694-0.807,1.42-1.154,2.318c-0.143,0.378-0.296,0.817-0.306,1.113c0,0.245,0,0.337-0.061,0.337
				c-0.102,0-0.745-0.266-0.745-0.868C104.351,44.026,104.432,43.546,104.698,42.32z M106.332,39.645
				c-0.072-0.071-0.122-0.225-0.122-0.337c0-0.235,0.143-0.899,0.316-1.337c0.317,0,1.031,0.408,1.236,0.715
				c-0.306,0.286-1.052,1.195-1.154,1.419c-0.164-0.031-0.306-0.164-0.306-0.276C106.301,39.788,106.312,39.727,106.332,39.645z"/>
			<path fill="#FFCB05" d="M107.679,43.75c0,0.082-0.01,0.174-0.01,0.266c0,0.348,0.082,0.817,0.47,0.817
				c0.735,0,1.439-0.735,1.869-1.195c0.071,0.061,0.122,0.112,0.173,0.173c-0.613,0.807-1.399,1.389-2.042,1.532
				c-0.94-0.102-1.491-0.745-1.491-1.562c0-1.674,1.532-3.645,2.879-3.645c0.307,0.041,0.603,0.235,0.878,0.582
				C110.304,42.392,109.415,43.056,107.679,43.75z M107.761,43.362c1.082-0.541,1.889-1.378,1.94-2.308
				C108.956,41.156,108.088,42.096,107.761,43.362z M111.54,39.747c-0.021,0.01-0.051,0.01-0.092,0.01
				c-0.357,0-0.776-0.449-1.061-1.062c-0.378,0.337-0.838,0.572-1.165,0.572c-0.204,0-0.388-0.092-0.551-0.265
				c0.551-0.195,1.021-0.521,1.46-1.042l-0.031-0.163c0.133-0.092,0.347-0.143,0.623-0.143c0.163,0,0.215,0,0.286,0.01
				C111.1,38.9,111.233,39.431,111.54,39.747z"/>
			<path fill="#FFCB05" d="M113.377,40.972c-0.306,0.745-1.378,2.196-1.46,2.818c0.429-0.459,1.123-1.317,1.358-1.562
				c0.521-0.552,1.48-1.563,2.144-1.563c0.347,0,0.593,0.297,0.725,0.552c0,0.031-0.112,0.04-0.296,0.255
				c-0.367,0.48-1.062,1.828-1.062,2.665c0,0.337,0.092,0.398,0.255,0.398c0.143,0,0.337-0.102,0.429-0.102
				c0.051,0.031,0.092,0.143,0.092,0.204c-0.205,0.184-0.643,0.418-0.879,0.418c-0.786,0-0.97-0.48-0.97-1.082
				c0-0.337,0.092-0.756,0.562-1.838c-0.03,0-0.429,0.194-0.827,0.582c-0.633,0.613-1.113,1.174-1.644,1.91
				c-0.296,0.418-0.521,0.735-0.684,0.827c-0.286-0.163-0.409-0.49-0.47-0.796c0-0.511,0.306-1.655,0.766-2.706
				c0.521-1.195,1.001-1.91,1.113-1.961C112.887,40.105,113.234,40.523,113.377,40.972z"/>
			<path fill="#FFCB05" d="M119.268,40.105c0.704,0,1.103,0.367,1.103,1.021c0,0.623-0.388,1.236-0.776,1.236
				c-0.163,0-0.347-0.112-0.459-0.276c0.459-0.419,0.683-0.797,0.683-1.134c0-0.194-0.081-0.297-0.234-0.297
				c-0.266,0-0.725,0.286-1.103,0.705c-0.582,0.653-0.899,1.471-0.899,2.338c0,0.552,0.123,0.878,0.367,0.99
				c0.399-0.051,1.134-0.408,1.767-0.878c0.051,0.041,0.102,0.143,0.102,0.204c-0.449,0.562-1.286,1.144-1.746,1.226
				c-0.899-0.082-1.624-1.021-1.624-2.093C116.45,41.606,117.839,40.105,119.268,40.105z"/>
			<path fill="#FFCB05" d="M121.035,42.32c0.061-0.266,0.357-1.328,0.97-1.634c0.225,0.051,0.684,0.276,0.95,0.674
				c-0.623,0.694-0.806,1.42-1.154,2.318c-0.143,0.378-0.296,0.817-0.307,1.113c0,0.245,0,0.337-0.061,0.337
				c-0.102,0-0.745-0.266-0.745-0.868C120.688,44.026,120.769,43.546,121.035,42.32z M122.669,39.645
				c-0.071-0.071-0.123-0.225-0.123-0.337c0-0.235,0.143-0.899,0.317-1.337c0.317,0,1.031,0.408,1.236,0.715
				c-0.306,0.286-1.052,1.195-1.154,1.419c-0.163-0.031-0.307-0.164-0.307-0.276C122.638,39.788,122.648,39.727,122.669,39.645z"/>
			<path fill="#FFCB05" d="M127.366,41.177c-0.552,1.144-0.929,2.348-0.929,3.043c0,0.378,0.081,0.644,0.265,0.746
				c-0.163,0.102-0.459,0.184-0.664,0.184c-0.367,0-0.551-0.245-0.551-0.756c0-0.377,0.133-0.929,0.388-1.593
				c-0.552,1.246-1.45,2.267-2.084,2.369c-0.5-0.02-0.847-0.531-0.847-1.236c0-1.522,1.471-3.605,2.573-3.666
				c0.276,0.071,0.735,0.551,0.766,0.807c-1.093,0.174-2.43,1.981-2.43,3.237c0,0.143,0.051,0.214,0.143,0.245
				c0.398-0.081,0.888-0.653,1.624-1.879c0.286-0.479,0.694-1.245,0.991-1.858C126.896,40.819,127.376,41.044,127.366,41.177z"/>
		</g>
	</g>
</g>
</svg>
